{"glyphs":{"0":{"ha":778,"x_min":132,"x_max":857,"o":"m 557 933 q 857 639 857 933 q 737 164 857 344 q 432 -17 617 -17 q 132 278 132 -17 q 252 753 132 572 q 557 933 372 933 m 661 603 q 661 649 661 603 q 638 732 661 694 q 551 769 615 769 q 433 692 486 769 q 353 509 379 614 q 328 313 328 404 q 351 184 328 221 q 438 147 374 147 q 555 225 501 147 q 635 407 608 303 q 661 603 661 511 z "},"1":{"ha":778,"x_min":269,"x_max":789,"o":"m 269 717 l 624 917 l 789 917 l 578 0 l 388 0 l 547 692 l 321 567 l 269 717 z "},"2":{"ha":778,"x_min":88,"x_max":836,"o":"m 401 396 q 588 570 535 511 q 640 678 640 629 q 612 749 640 728 q 522 769 583 769 q 319 753 431 769 l 285 749 l 310 888 q 573 933 443 933 q 769 882 703 933 q 836 718 836 831 q 780 528 836 606 q 600 356 724 450 l 347 164 l 718 164 l 678 0 l 88 0 l 125 156 l 401 396 z "},"3":{"ha":778,"x_min":82,"x_max":833,"o":"m 294 876 q 559 933 418 933 q 767 886 700 933 q 833 740 833 839 q 797 585 833 640 q 667 482 760 529 q 735 417 717 453 q 754 310 754 382 q 646 74 754 164 q 360 -17 538 -17 q 229 -4 299 -17 q 121 21 160 8 l 82 33 l 122 164 q 367 147 281 147 q 506 188 453 147 q 558 301 558 229 q 533 359 558 342 q 439 378 507 376 l 264 381 l 299 522 l 478 531 q 585 579 532 533 q 638 683 638 625 q 513 769 638 769 q 311 756 407 769 l 275 751 l 294 876 z "},"4":{"ha":778,"x_min":97,"x_max":794,"o":"m 447 -7 l 485 156 l 97 156 l 129 294 l 513 917 l 721 917 l 333 314 l 521 314 l 578 561 l 767 561 l 710 314 l 794 314 l 757 156 l 674 156 l 636 -7 l 447 -7 z "},"5":{"ha":778,"x_min":86,"x_max":890,"o":"m 536 581 q 778 358 778 581 q 674 89 778 194 q 413 -17 569 -17 q 258 -2 340 -17 q 131 28 176 13 l 86 43 l 129 188 q 382 147 290 147 q 528 197 474 147 q 582 308 582 247 q 557 393 582 369 q 488 417 532 417 q 350 394 408 417 l 329 388 l 190 419 l 344 918 l 890 918 l 853 754 l 458 754 l 376 538 q 536 581 475 581 z "},"6":{"ha":778,"x_min":138,"x_max":889,"o":"m 611 769 q 371 542 451 769 q 558 590 482 590 q 810 349 810 590 q 712 83 810 183 q 433 -17 614 -17 q 216 65 294 -17 q 138 310 138 146 q 173 524 138 415 q 272 724 208 632 q 435 875 335 817 q 656 933 536 933 q 853 911 747 933 l 889 903 l 829 749 q 611 769 721 769 m 501 426 q 365 401 424 426 l 346 393 q 333 290 333 340 q 360 194 333 240 q 446 147 388 147 q 571 194 528 147 q 614 331 614 240 q 501 426 614 426 z "},"7":{"ha":778,"x_min":163,"x_max":883,"o":"m 274 753 l 311 917 l 883 917 l 828 676 l 336 -25 l 163 25 l 644 696 l 656 753 l 274 753 z "},"8":{"ha":778,"x_min":90,"x_max":886,"o":"m 613 935 q 815 881 743 935 q 886 750 886 828 q 847 587 886 647 q 726 472 807 526 q 799 301 799 418 q 674 71 799 161 q 386 -19 550 -19 q 156 39 222 -19 q 90 214 90 97 q 271 472 90 351 q 228 529 242 501 q 213 569 214 557 q 213 610 213 581 q 322 838 213 740 q 613 935 431 935 m 297 244 q 297 218 297 244 q 324 169 297 193 q 422 144 351 144 q 544 190 492 144 q 597 293 597 236 q 585 347 597 328 q 538 382 572 367 l 415 382 q 331 329 365 364 q 297 244 297 294 m 681 680 q 681 699 681 680 q 653 744 681 718 q 566 771 626 771 q 457 727 506 771 q 408 632 408 683 q 417 581 408 599 q 454 540 426 564 l 576 540 q 649 603 618 564 q 681 680 681 642 z "},"9":{"ha":778,"x_min":110,"x_max":840,"o":"m 168 179 q 349 158 249 158 q 521 216 449 158 q 617 368 593 274 l 581 360 q 411 332 457 332 q 233 390 292 332 q 174 578 174 449 q 269 811 174 703 q 398 899 317 865 q 581 933 479 933 q 776 841 713 933 q 840 583 840 749 q 688 143 840 303 q 315 -17 535 -17 q 139 6 224 -17 l 110 14 l 168 179 m 664 606 q 539 760 664 760 q 413 714 467 760 q 360 604 360 668 q 385 521 360 540 q 457 501 410 501 q 626 517 546 501 l 656 522 q 664 606 664 568 z "}," ":{"ha":306,"x_min":0,"x_max":0,"o":""},"!":{"ha":226,"x_min":19,"x_max":438,"o":"m 107 358 l 239 972 l 438 972 l 282 358 l 107 358 m 19 0 l 68 213 l 257 213 l 208 0 l 19 0 z "},"\"":{"ha":425,"x_min":151,"x_max":639,"o":"m 311 607 l 151 607 l 232 956 l 406 956 l 311 607 m 544 607 l 385 607 l 465 956 l 639 956 l 544 607 z "},"#":{"ha":778,"x_min":71,"x_max":918,"o":"m 804 229 l 671 229 l 614 0 l 453 0 l 510 229 l 365 229 l 308 0 l 147 0 l 204 229 l 71 229 l 110 385 l 243 385 l 279 532 l 146 532 l 185 688 l 318 688 l 375 917 l 536 917 l 479 688 l 624 688 l 681 917 l 842 917 l 785 688 l 918 688 l 879 532 l 746 532 l 710 385 l 843 385 l 804 229 m 549 385 l 585 532 l 440 532 l 404 385 l 549 385 z "},"$":{"ha":778,"x_min":122,"x_max":846,"o":"m 750 301 q 656 66 750 149 q 403 -17 561 -17 q 344 -14 381 -17 l 276 -165 l 158 -165 l 235 4 l 122 39 l 153 174 q 300 151 225 160 l 414 406 q 288 497 325 447 q 251 633 251 547 q 336 849 251 764 q 563 935 421 935 q 649 929 593 935 l 713 1071 l 832 1071 l 760 908 l 846 883 l 811 751 q 696 767 757 760 l 588 528 q 717 436 685 483 q 750 301 750 389 m 561 279 q 551 323 561 307 q 511 357 542 339 l 415 146 q 524 179 488 149 q 561 279 561 210 m 440 656 q 450 610 440 626 q 490 575 460 594 l 581 776 l 568 776 q 474 743 508 776 q 440 656 440 710 z "},"%":{"ha":778,"x_min":150,"x_max":849,"o":"m 399 863 q 390 863 399 863 q 370 843 381 863 q 347 776 360 824 q 335 705 335 729 q 353 681 335 681 q 383 701 372 681 q 406 769 394 722 q 418 839 418 815 q 399 863 418 863 m 150 8 l 739 1000 l 849 958 l 260 -33 l 150 8 m 199 689 q 210 772 199 725 q 426 974 260 974 q 554 854 554 974 q 543 772 554 818 q 326 569 493 569 q 199 689 199 569 m 676 404 q 804 285 804 404 q 793 203 804 249 q 576 0 743 0 q 449 119 449 0 q 460 203 449 156 q 676 404 510 404 m 649 293 q 640 293 649 293 q 619 273 631 293 q 596 206 608 253 q 583 135 583 158 q 602 111 583 111 q 633 132 621 111 q 656 199 644 153 q 668 269 668 246 q 649 293 668 293 z "},"&":{"ha":890,"x_min":88,"x_max":942,"o":"m 597 961 q 842 751 842 961 q 791 596 842 653 q 597 482 740 539 l 703 340 q 742 420 719 365 q 771 508 765 475 l 942 508 q 881 356 926 446 q 797 221 836 267 l 908 92 l 779 -19 l 679 108 q 382 -17 550 -17 q 151 49 214 -17 q 88 231 88 115 q 155 424 88 346 q 360 558 222 503 q 318 707 318 631 q 394 899 318 836 q 597 961 471 961 m 413 142 q 509 166 457 142 q 590 219 561 190 l 426 451 q 281 249 281 383 q 413 142 281 142 m 594 806 q 504 686 504 806 q 532 582 504 625 q 632 653 608 622 q 656 735 656 683 q 594 806 656 806 z "},"'":{"ha":192,"x_min":151,"x_max":406,"o":"m 311 607 l 151 607 l 232 956 l 406 956 l 311 607 z "},"(":{"ha":325,"x_min":71,"x_max":572,"o":"m 374 656 q 353 607 374 656 q 300 426 333 558 q 267 196 267 294 q 283 -125 267 10 l 289 -171 l 111 -171 q 71 183 71 -36 q 105 440 71 307 q 186 675 139 574 q 364 994 289 893 l 399 1039 l 572 1039 q 473 866 532 979 q 374 656 414 753 z "},")":{"ha":326,"x_min":-44,"x_max":457,"o":"m 154 219 q 174 268 154 219 q 228 449 194 317 q 261 679 261 581 q 244 1000 261 865 l 239 1046 l 417 1046 q 457 692 457 911 q 423 435 457 568 q 342 200 389 301 q 164 -119 239 -18 l 129 -164 l -44 -164 q 55 9 -4 -104 q 154 219 114 122 z "},"*":{"ha":588,"x_min":225,"x_max":710,"o":"m 710 693 l 539 693 l 592 526 l 490 496 l 433 664 l 290 554 l 225 636 l 371 744 l 229 846 l 293 933 l 433 832 l 488 1000 l 592 965 l 539 796 l 710 796 l 710 693 z "},"+":{"ha":778,"x_min":149,"x_max":788,"o":"m 149 265 l 149 432 l 383 432 l 383 665 l 550 665 l 550 432 l 788 432 l 788 265 l 550 265 l 550 29 l 383 29 l 383 265 l 149 265 z "},",":{"ha":243,"x_min":-74,"x_max":293,"o":"m 81 -181 l -74 -181 l 89 213 l 293 213 l 81 -181 z "},"-":{"ha":371,"x_min":74,"x_max":467,"o":"m 74 285 l 115 451 l 467 451 l 425 285 l 74 285 z "},".":{"ha":211,"x_min":11,"x_max":249,"o":"m 11 0 l 60 213 l 249 213 l 200 0 l 11 0 z "},"/":{"ha":650,"x_min":51,"x_max":825,"o":"m 226 -33 l 51 28 l 650 997 l 825 936 l 226 -33 z "},":":{"ha":219,"x_min":14,"x_max":349,"o":"m 111 411 l 160 624 l 349 624 l 300 411 l 111 411 m 14 0 l 63 213 l 251 213 l 203 0 l 14 0 z "},";":{"ha":243,"x_min":-75,"x_max":369,"o":"m -75 -181 l 88 213 l 292 213 l 79 -181 l -75 -181 m 132 411 l 181 624 l 369 624 l 321 411 l 132 411 z "},"<":{"ha":778,"x_min":158,"x_max":722,"o":"m 722 490 l 360 353 l 722 203 l 722 14 l 158 272 l 158 425 l 722 679 l 722 490 z "},"=":{"ha":778,"x_min":161,"x_max":778,"o":"m 161 410 l 161 578 l 778 578 l 778 410 l 161 410 m 161 121 l 161 289 l 778 289 l 778 121 l 161 121 z "},">":{"ha":778,"x_min":215,"x_max":779,"o":"m 578 353 l 215 490 l 215 679 l 779 425 l 779 272 l 215 14 l 215 203 l 578 353 z "},"?":{"ha":599,"x_min":167,"x_max":725,"o":"m 725 744 q 681 590 725 650 q 515 446 636 529 q 429 344 440 394 l 417 289 l 242 289 q 253 419 242 357 q 383 567 265 482 q 497 656 465 624 q 528 728 528 689 q 503 781 528 768 q 431 794 479 794 q 256 782 339 794 l 228 778 l 247 924 q 469 961 372 961 q 725 744 725 961 m 167 0 l 219 233 l 408 233 l 356 0 l 167 0 z "},"@":{"ha":1332,"x_min":106,"x_max":1417,"o":"m 882 1010 q 1129 978 1024 1010 q 1386 761 1325 921 q 1417 599 1417 685 q 1389 410 1417 513 q 1250 83 1329 181 q 1046 -14 1171 -14 q 881 47 921 -14 q 756 4 835 25 q 613 -17 676 -17 q 505 17 550 -17 q 443 101 460 50 q 421 229 421 168 q 433 336 421 290 q 783 711 508 711 q 1122 665 850 711 q 1024 208 1031 265 q 1079 163 1018 163 q 1151 222 1119 163 q 1211 392 1183 281 q 1246 579 1246 526 q 1232 683 1246 632 q 1176 772 1218 735 q 852 854 1083 854 q 488 732 621 854 q 299 376 354 610 q 281 238 281 299 q 291 125 281 178 q 332 25 301 72 q 410 -58 363 -22 q 690 -132 508 -132 l 881 -119 l 844 -274 q 647 -287 710 -287 q 415 -251 518 -287 q 249 -151 313 -214 q 147 -3 186 -87 q 107 183 107 85 q 126 376 107 281 q 390 862 207 714 q 882 1010 574 1010 m 671 142 q 836 194 750 142 q 908 533 842 250 q 782 553 819 553 q 621 336 669 553 q 608 253 608 285 q 667 142 608 143 q 671 142 668 142 z "},"A":{"ha":765,"x_min":18,"x_max":774,"o":"m 18 0 l 443 944 l 774 944 l 744 0 l 553 0 l 558 164 l 283 164 l 210 0 l 18 0 m 556 778 l 356 331 l 565 331 l 585 778 l 556 778 z "},"B":{"ha":796,"x_min":90,"x_max":883,"o":"m 636 944 q 883 740 883 944 q 844 592 883 650 q 728 486 806 533 q 800 417 782 454 q 818 322 818 379 q 722 92 818 183 q 446 0 625 0 l 90 0 l 308 944 l 636 944 m 531 396 l 374 396 l 319 164 l 483 164 q 583 207 546 164 q 621 318 621 250 q 531 396 621 396 m 606 781 l 463 781 l 410 556 l 553 556 q 649 597 610 556 q 688 701 688 638 q 606 781 688 781 z "},"C":{"ha":686,"x_min":138,"x_max":861,"o":"m 422 -17 q 138 257 138 -17 q 206 631 138 460 q 297 798 243 725 q 435 916 351 871 q 624 961 519 961 q 828 931 725 961 l 861 919 l 817 778 q 617 794 731 794 q 465 718 531 794 q 367 524 399 642 q 335 271 335 406 q 447 150 335 150 q 640 164 554 150 l 672 168 l 657 19 q 422 -17 528 -17 z "},"D":{"ha":840,"x_min":90,"x_max":917,"o":"m 429 0 l 90 0 l 308 944 l 606 944 q 917 657 917 944 q 842 290 917 454 q 610 39 757 107 q 429 0 528 0 m 658 348 q 674 387 658 348 q 704 506 689 426 q 719 655 719 586 q 681 751 719 724 q 567 778 643 778 l 461 778 l 321 167 l 446 167 q 572 218 517 167 q 658 348 628 269 z "},"E":{"ha":690,"x_min":90,"x_max":861,"o":"m 90 0 l 307 944 l 861 944 l 822 778 l 461 778 l 410 556 l 696 556 l 657 389 l 372 389 l 321 167 l 683 167 l 646 0 l 90 0 z "},"F":{"ha":663,"x_min":90,"x_max":853,"o":"m 90 0 l 308 944 l 853 944 l 814 778 l 461 778 l 396 493 l 688 493 l 647 326 l 357 326 l 282 0 l 90 0 z "},"G":{"ha":789,"x_min":142,"x_max":935,"o":"m 454 -17 q 142 281 142 -17 q 219 672 142 506 q 461 925 304 856 q 629 961 544 961 q 786 947 714 961 q 897 919 858 933 l 935 906 l 890 767 q 631 794 753 794 q 497 745 556 794 q 406 617 438 696 q 339 279 339 457 q 478 150 339 150 l 565 157 l 614 367 l 525 367 l 563 525 l 842 525 l 724 19 q 454 -17 629 -17 z "},"H":{"ha":861,"x_min":90,"x_max":989,"o":"m 579 0 l 671 400 l 374 400 l 282 0 l 90 0 l 308 944 l 500 944 l 413 567 l 710 567 l 797 944 l 989 944 l 771 0 l 579 0 z "},"I":{"ha":372,"x_min":90,"x_max":500,"o":"m 90 0 l 308 944 l 500 944 l 282 0 l 90 0 z "},"J":{"ha":393,"x_min":8,"x_max":525,"o":"m 525 944 l 350 188 q 275 -21 318 47 q 215 -69 253 -56 q 8 -96 144 -96 l 40 71 q 119 92 99 74 q 158 188 140 110 l 333 944 l 525 944 z "},"K":{"ha":750,"x_min":90,"x_max":949,"o":"m 533 0 l 472 379 l 367 369 l 282 0 l 90 0 l 308 944 l 500 944 l 406 536 l 494 547 l 739 944 l 949 944 l 647 471 l 735 0 l 533 0 z "},"L":{"ha":586,"x_min":90,"x_max":619,"o":"m 582 0 l 90 0 l 308 944 l 500 944 l 321 167 l 619 167 l 582 0 z "},"M":{"ha":1096,"x_min":90,"x_max":1224,"o":"m 90 0 l 308 944 l 606 944 l 607 257 l 921 944 l 1224 944 l 1006 0 l 814 0 l 994 778 l 986 778 l 649 42 l 468 42 l 467 778 l 460 778 l 282 0 l 90 0 z "},"N":{"ha":904,"x_min":90,"x_max":1032,"o":"m 90 0 l 308 944 l 613 944 l 663 204 l 679 204 l 847 944 l 1032 944 l 814 0 l 525 0 l 464 754 l 447 754 l 271 0 l 90 0 z "},"O":{"ha":854,"x_min":140,"x_max":929,"o":"m 338 312 q 338 264 338 312 q 367 183 338 215 q 469 150 397 150 q 588 197 540 150 q 692 394 653 263 q 732 653 732 526 q 703 762 732 729 q 601 794 674 794 q 488 753 529 794 q 378 547 418 685 q 338 312 338 408 m 929 672 q 872 317 929 482 q 706 68 815 153 q 447 -17 597 -17 q 140 272 140 -17 q 196 615 140 454 q 358 869 251 776 q 622 961 465 961 q 929 672 929 961 z "},"P":{"ha":760,"x_min":90,"x_max":872,"o":"m 463 272 l 344 272 l 282 0 l 90 0 l 308 944 l 581 944 q 803 881 735 944 q 872 678 872 818 q 763 376 872 479 q 463 272 654 272 m 488 439 q 625 501 575 439 q 675 675 675 563 q 650 753 675 728 q 567 778 625 778 l 461 778 l 383 439 l 488 439 z "},"Q":{"ha":854,"x_min":140,"x_max":929,"o":"m 438 -17 q 218 55 296 -17 q 140 272 140 126 q 196 615 140 454 q 358 869 251 776 q 622 961 465 961 q 929 672 929 961 q 872 317 929 482 q 701 64 815 153 q 654 33 671 42 l 721 -154 l 539 -214 l 479 -14 q 438 -17 451 -17 m 338 312 q 338 264 338 312 q 367 183 338 215 q 469 150 397 150 q 588 197 540 150 q 692 394 653 263 q 732 653 732 526 q 703 762 732 729 q 601 794 674 794 q 488 753 529 794 q 378 547 418 685 q 338 312 338 408 z "},"R":{"ha":776,"x_min":90,"x_max":872,"o":"m 581 944 q 801 881 731 944 q 872 682 872 818 q 813 454 872 546 q 661 326 753 363 l 738 0 l 546 0 l 483 300 l 351 300 l 282 0 l 90 0 l 308 944 l 581 944 m 513 464 q 631 524 588 464 q 675 656 675 583 q 651 754 675 728 q 569 781 628 781 l 463 781 l 389 464 l 513 464 z "},"S":{"ha":688,"x_min":69,"x_max":814,"o":"m 529 797 q 433 763 468 797 q 397 682 397 729 q 419 613 397 635 q 542 547 442 592 q 678 453 642 503 q 715 310 715 404 q 619 68 715 153 q 358 -17 522 -17 q 221 -3 293 -17 q 108 25 149 11 l 69 40 l 101 178 q 348 150 258 150 q 479 181 438 150 q 521 288 521 213 q 497 349 521 328 q 378 414 472 371 q 243 508 283 457 q 203 651 203 560 q 290 874 203 786 q 524 961 378 961 q 663 948 590 961 q 775 922 736 935 l 814 908 l 779 772 q 529 797 626 797 z "},"T":{"ha":633,"x_min":192,"x_max":839,"o":"m 192 778 l 231 944 l 839 944 l 800 778 l 590 778 l 411 0 l 219 0 l 399 778 l 192 778 z "},"U":{"ha":826,"x_min":143,"x_max":963,"o":"m 346 321 q 333 226 333 268 q 362 167 333 183 q 462 150 390 150 q 569 188 533 150 q 626 321 606 226 l 771 944 l 963 944 l 818 321 q 687 63 778 143 q 446 -17 596 -17 q 143 197 143 -17 q 161 351 143 269 l 299 944 l 490 944 l 346 321 z "},"V":{"ha":771,"x_min":217,"x_max":971,"o":"m 779 944 l 971 944 l 543 0 l 217 0 l 236 944 l 428 944 l 394 167 l 440 167 l 779 944 z "},"W":{"ha":1201,"x_min":199,"x_max":1396,"o":"m 242 944 l 433 944 l 375 176 l 394 176 l 708 931 l 919 931 l 874 176 l 893 176 l 1204 944 l 1396 944 l 992 0 l 714 0 l 760 686 l 485 0 l 199 0 l 242 944 z "},"X":{"ha":722,"x_min":1,"x_max":932,"o":"m 435 944 l 503 613 l 731 944 l 932 944 l 585 475 l 715 0 l 514 0 l 438 338 l 203 0 l 1 0 l 357 476 l 232 944 l 435 944 z "},"Y":{"ha":700,"x_min":219,"x_max":918,"o":"m 918 944 l 529 400 l 435 0 l 257 0 l 351 408 l 219 944 l 414 944 l 481 576 l 715 944 l 918 944 z "},"Z":{"ha":681,"x_min":50,"x_max":849,"o":"m 229 778 l 268 944 l 849 944 l 804 751 l 314 200 l 306 167 l 669 167 l 631 0 l 50 0 l 93 190 l 581 744 l 588 778 l 229 778 z "},"[":{"ha":342,"x_min":-21,"x_max":578,"o":"m 260 1038 l 578 1038 l 539 879 l 417 879 l 210 -11 l 332 -11 l 293 -169 l -21 -169 l 260 1038 z "},"\\":{"ha":672,"x_min":258,"x_max":636,"o":"m 636 0 l 443 0 l 258 975 l 453 975 l 636 0 z "},"]":{"ha":340,"x_min":-36,"x_max":563,"o":"m 282 -169 l -36 -169 l 3 -11 l 125 -11 l 332 879 l 210 879 l 249 1038 l 563 1038 l 282 -169 z "},"^":{"ha":778,"x_min":76,"x_max":774,"o":"m 579 435 l 428 736 l 271 435 l 76 435 l 346 917 l 504 917 l 774 435 l 579 435 z "},"_":{"ha":664,"x_min":-44,"x_max":617,"o":"m -6 -111 l 617 -111 l 578 -285 l -44 -285 l -6 -111 z "},"`":{"ha":719,"x_min":339,"x_max":735,"o":"m 428 1072 l 735 947 l 657 810 l 339 919 l 428 1072 z "},"a":{"ha":733,"x_min":111,"x_max":811,"o":"m 307 -17 q 158 52 206 -17 q 111 236 111 121 q 192 543 111 396 q 303 664 232 617 q 464 711 374 711 q 747 678 560 711 l 811 665 l 707 217 l 669 4 l 485 -3 q 503 106 497 82 q 369 -3 446 29 q 307 -17 338 -17 m 469 553 q 376 499 417 553 q 300 236 300 396 q 315 165 300 188 q 363 142 331 142 q 437 172 396 142 q 506 233 478 203 l 533 265 l 597 533 q 469 553 506 553 z "},"b":{"ha":732,"x_min":81,"x_max":781,"o":"m 572 711 q 733 647 685 711 q 781 485 781 582 q 683 126 781 267 q 419 -15 586 -15 q 268 -4 353 -15 q 132 19 183 7 l 81 31 l 297 972 l 483 972 l 407 640 q 487 690 439 668 q 572 711 535 711 m 296 157 q 409 143 357 143 q 497 178 461 143 q 553 265 533 213 q 590 463 590 372 q 517 553 590 553 q 453 535 489 553 q 394 500 417 518 l 371 483 l 296 157 z "},"c":{"ha":568,"x_min":114,"x_max":683,"o":"m 476 711 q 653 678 560 711 l 683 668 l 636 532 q 468 550 529 550 q 346 463 389 550 q 303 260 303 376 q 408 144 303 144 l 557 156 l 542 18 q 339 -17 440 -17 q 176 47 238 -17 q 114 225 114 111 q 208 574 114 438 q 476 711 301 711 z "},"d":{"ha":733,"x_min":111,"x_max":882,"o":"m 311 -17 q 162 47 213 -17 q 111 229 111 111 q 149 454 111 347 q 269 635 188 561 q 461 710 351 710 q 600 688 508 710 l 628 681 l 696 972 l 882 972 l 657 0 l 476 0 l 489 72 q 408 12 461 40 q 311 -17 356 -17 m 594 532 q 463 551 514 551 q 374 497 413 551 q 318 369 336 442 q 300 231 300 297 q 371 142 300 142 q 433 167 393 142 q 500 217 472 192 l 528 242 l 594 532 z "},"e":{"ha":661,"x_min":113,"x_max":736,"o":"m 299 219 q 299 201 299 219 q 327 163 299 183 q 399 142 356 142 q 594 156 494 142 l 631 160 l 610 22 q 354 -17 481 -17 q 170 40 228 -17 q 113 207 113 97 q 135 403 113 317 q 201 558 157 489 q 320 669 244 628 q 493 710 396 710 q 736 503 736 710 q 647 321 736 371 q 351 271 558 271 l 303 271 q 299 219 299 254 m 381 408 q 515 429 476 408 q 553 500 553 450 q 483 560 553 560 q 324 408 360 560 l 381 408 z "},"f":{"ha":456,"x_min":36,"x_max":657,"o":"m 525 989 q 639 964 579 989 l 657 957 l 624 821 q 538 831 575 831 q 487 803 501 831 q 458 721 472 776 l 451 694 l 597 694 l 558 536 l 417 536 l 292 0 l 204 -293 l 36 -293 l 231 533 l 167 533 l 206 694 l 265 694 l 272 722 q 359 928 306 868 q 525 989 413 989 z "},"g":{"ha":672,"x_min":13,"x_max":801,"o":"m 314 -319 q 13 -129 13 -319 q 59 -22 13 -64 q 182 58 106 21 q 154 123 154 86 q 175 193 154 160 q 217 246 196 226 l 238 265 q 143 439 143 321 q 222 634 143 557 q 431 711 301 711 q 572 692 490 711 l 599 686 l 801 694 l 767 544 l 686 544 q 692 474 692 514 q 609 292 692 367 q 401 218 526 218 l 342 225 q 321 178 321 197 q 347 150 321 158 q 451 131 374 142 q 649 -44 649 101 q 559 -244 649 -168 q 314 -319 469 -319 m 261 8 q 208 -34 233 -7 q 182 -90 182 -61 q 213 -142 182 -119 q 310 -164 243 -164 q 474 -67 474 -164 q 460 -37 474 -49 q 431 -22 447 -26 q 342 -6 414 -18 q 261 8 271 6 m 411 369 q 490 402 460 369 q 521 482 521 435 q 424 560 521 560 q 344 528 375 560 q 314 447 314 496 q 411 369 314 369 z "},"h":{"ha":713,"x_min":76,"x_max":751,"o":"m 582 711 q 751 515 751 711 q 722 340 751 465 l 644 0 l 458 0 l 533 326 q 558 472 558 431 q 548 531 558 513 q 511 550 538 550 q 393 488 464 550 l 369 467 l 263 0 l 76 0 l 300 972 l 486 972 l 408 629 q 490 685 439 660 q 582 711 542 711 z "},"i":{"ha":338,"x_min":76,"x_max":483,"o":"m 76 0 l 236 694 l 422 694 l 263 0 l 76 0 m 251 767 l 296 957 l 483 957 l 440 767 l 251 767 z "},"j":{"ha":338,"x_min":-97,"x_max":481,"o":"m 76 0 l 236 694 l 422 694 l 263 0 q 242 -83 250 -56 q 218 -144 235 -111 q 186 -192 201 -176 q 136 -231 171 -208 q -39 -319 89 -264 l -97 -171 q 35 -90 10 -115 q 76 0 61 -64 m 249 754 l 293 944 l 481 944 l 438 754 l 249 754 z "},"k":{"ha":649,"x_min":76,"x_max":789,"o":"m 263 0 l 76 0 l 300 972 l 486 972 l 361 432 l 408 442 l 585 693 l 789 693 l 547 360 l 639 0 l 449 0 l 382 288 l 326 279 l 263 0 z "},"l":{"ha":339,"x_min":76,"x_max":486,"o":"m 76 0 l 300 972 l 486 972 l 263 0 l 76 0 z "},"m":{"ha":1078,"x_min":76,"x_max":1115,"o":"m 532 326 q 557 471 557 431 q 545 531 557 511 q 507 550 533 550 q 392 488 461 550 l 369 467 l 263 0 l 76 0 l 236 694 l 414 694 l 407 628 q 531 703 460 681 q 600 711 560 711 q 676 686 640 711 q 722 636 713 661 l 732 613 q 765 640 744 624 q 844 684 786 657 q 949 711 901 711 q 1115 515 1115 711 q 1089 340 1115 453 l 1011 0 l 825 0 l 903 326 q 928 469 928 431 q 917 529 928 508 q 880 550 906 550 q 820 530 854 550 q 764 489 786 510 l 742 469 q 721 340 732 386 l 643 0 l 457 0 l 532 326 z "},"n":{"ha":713,"x_min":76,"x_max":751,"o":"m 582 711 q 751 515 751 711 q 722 340 751 465 l 644 0 l 458 0 l 533 326 q 558 472 558 431 q 548 531 558 513 q 510 550 538 550 q 392 488 461 550 l 369 467 l 263 0 l 76 0 l 236 694 l 414 694 l 406 626 q 490 685 438 658 q 582 711 542 711 z "},"o":{"ha":689,"x_min":111,"x_max":736,"o":"m 463 710 q 736 447 736 710 q 699 232 736 335 q 578 56 661 129 q 385 -17 496 -17 q 111 246 111 -17 q 151 461 111 357 q 274 638 192 565 q 463 710 357 710 m 385 142 q 506 237 460 142 q 551 450 551 332 q 463 551 551 551 q 342 456 388 551 q 296 243 296 361 q 385 142 296 142 z "},"p":{"ha":732,"x_min":10,"x_max":782,"o":"m 581 711 q 732 647 682 711 q 782 467 782 582 q 744 244 782 353 q 624 60 706 135 q 432 -15 542 -15 q 292 6 369 -15 l 264 14 l 193 -292 l 10 -292 l 236 694 l 418 694 l 404 622 q 490 684 439 657 q 581 711 540 711 m 522 553 q 460 528 500 553 q 393 478 421 503 l 365 453 l 299 163 q 430 143 379 143 q 519 198 481 143 q 575 325 557 253 q 593 464 593 397 q 522 553 593 553 z "},"q":{"ha":731,"x_min":111,"x_max":810,"o":"m 311 -17 q 163 47 214 -17 q 111 229 111 111 q 151 456 111 347 q 272 638 190 565 q 461 710 354 710 q 749 675 558 710 l 810 664 l 590 -292 l 404 -292 l 489 74 q 465 49 481 64 q 402 8 449 33 q 311 -17 356 -17 m 460 551 q 346 448 392 551 q 300 231 300 344 q 371 142 300 142 q 433 167 393 142 q 500 217 472 192 l 528 242 l 594 532 q 460 551 513 551 z "},"r":{"ha":464,"x_min":76,"x_max":614,"o":"m 76 0 l 236 694 l 421 694 l 396 594 q 503 669 438 632 q 614 711 568 706 l 560 517 q 397 453 493 496 l 364 438 l 263 0 l 76 0 z "},"s":{"ha":600,"x_min":64,"x_max":686,"o":"m 419 551 q 356 532 378 551 q 333 487 333 513 q 353 449 333 461 q 453 411 372 436 q 576 353 535 386 q 617 247 617 321 q 531 50 617 117 q 304 -17 446 -17 q 184 -5 244 -17 q 94 19 124 7 l 64 31 l 99 167 q 329 142 232 142 q 426 210 426 142 q 407 238 426 228 q 340 263 388 249 q 194 328 242 290 q 147 435 147 365 q 232 637 147 564 q 436 710 317 710 q 564 699 501 710 q 656 678 626 689 l 686 667 l 653 529 q 419 551 510 551 z "},"t":{"ha":457,"x_min":138,"x_max":589,"o":"m 331 181 q 371 142 331 142 l 465 149 l 450 15 q 298 -17 376 -17 q 178 26 219 -17 q 138 128 138 68 q 158 275 138 189 l 219 536 l 144 536 l 186 694 l 257 694 l 297 872 l 483 872 l 443 694 l 589 694 l 550 536 l 406 536 l 342 258 q 331 181 331 211 z "},"u":{"ha":713,"x_min":121,"x_max":796,"o":"m 290 -17 q 121 179 121 -17 q 150 354 121 233 l 228 694 l 414 694 l 339 368 q 314 224 314 264 q 326 164 314 183 q 364 144 338 144 q 481 207 411 144 l 503 228 l 610 694 l 796 694 l 636 0 l 458 0 l 467 68 q 383 10 435 36 q 290 -17 331 -17 z "},"v":{"ha":643,"x_min":169,"x_max":788,"o":"m 175 694 l 357 694 l 338 154 l 363 154 l 600 694 l 788 694 l 461 0 l 169 0 l 175 694 z "},"w":{"ha":1058,"x_min":147,"x_max":1193,"o":"m 188 694 l 375 694 l 331 158 l 363 158 l 583 681 l 794 681 l 767 158 l 799 158 l 1006 694 l 1193 694 l 910 0 l 600 0 l 626 432 l 451 0 l 147 0 l 188 694 z "},"x":{"ha":597,"x_min":8,"x_max":749,"o":"m 172 694 l 361 694 l 415 482 l 560 694 l 749 694 l 475 333 l 586 0 l 397 0 l 343 204 l 201 0 l 8 0 l 281 347 l 172 694 z "},"y":{"ha":644,"x_min":142,"x_max":788,"o":"m 175 694 l 357 694 l 338 154 l 358 154 l 600 694 l 788 694 l 326 -292 l 142 -292 l 285 0 l 169 0 l 175 694 z "},"z":{"ha":575,"x_min":47,"x_max":689,"o":"m 169 536 l 210 694 l 689 694 l 650 540 l 300 158 l 567 158 l 526 0 l 47 0 l 82 156 l 431 536 l 169 536 z "},"{":{"ha":400,"x_min":88,"x_max":636,"o":"m 283 435 q 368 315 368 388 q 337 172 368 278 q 306 42 306 67 q 386 -25 306 -25 l 343 -185 q 182 -139 242 -185 q 122 -11 122 -93 q 151 127 122 18 q 181 264 181 236 q 88 382 181 333 l 121 514 q 233 560 206 536 q 272 635 260 585 l 313 838 q 421 1001 347 954 q 636 1054 494 1049 l 606 894 q 521 864 549 889 q 482 794 493 839 l 449 619 q 392 500 429 540 q 283 435 356 460 z "},"|":{"ha":465,"x_min":218,"x_max":404,"o":"m 218 -292 l 218 972 l 404 972 l 404 -292 l 218 -292 z "},"}":{"ha":399,"x_min":-37,"x_max":511,"o":"m 315 431 q 231 550 231 478 q 262 693 231 588 q 293 824 293 799 q 213 890 293 890 l 256 1050 q 417 1004 357 1050 q 476 876 476 958 q 447 738 476 847 q 418 601 418 629 q 511 483 418 532 l 478 351 q 366 305 393 329 q 326 231 339 281 l 286 28 q 178 -136 251 -89 q -37 -189 104 -183 l -7 -29 q 78 1 50 -24 q 117 71 106 26 l 150 246 q 206 365 169 325 q 315 431 243 406 z "},"~":{"ha":778,"x_min":167,"x_max":772,"o":"m 699 258 q 676 247 699 258 q 614 236 653 236 q 465 267 575 236 q 329 297 356 297 q 265 283 303 297 q 203 256 226 269 l 181 243 l 167 392 q 338 464 254 464 q 482 433 376 464 q 615 403 588 403 q 738 442 667 403 l 761 456 l 772 307 q 699 258 746 281 z "}," ":{"ha":306,"x_min":0,"x_max":0,"o":""},"¡":{"ha":224,"x_min":-51,"x_max":367,"o":"m 279 336 l 147 -278 l -51 -278 l 104 336 l 279 336 m 367 694 l 318 482 l 129 482 l 178 694 l 367 694 z "},"¢":{"ha":778,"x_min":201,"x_max":769,"o":"m 278 74 q 257 88 278 74 q 221 146 236 103 q 204 219 206 189 q 203 276 203 250 q 215 347 203 303 q 332 567 251 490 q 526 650 413 643 l 558 792 l 708 792 l 672 646 l 769 632 l 722 476 q 558 481 624 481 q 452 451 492 481 q 393 347 413 421 q 386 290 386 317 q 400 244 386 263 q 514 213 425 213 l 664 218 l 635 63 q 531 50 583 54 l 496 -103 l 349 -103 l 381 40 q 278 74 319 44 z "},"£":{"ha":778,"x_min":104,"x_max":867,"o":"m 824 768 q 684 779 736 779 q 612 749 632 779 q 574 643 592 718 l 567 615 l 785 615 l 747 457 l 531 457 l 461 158 l 589 158 l 683 183 l 679 24 l 576 0 l 104 0 l 140 158 l 272 158 l 340 457 l 229 457 l 267 615 l 376 615 l 389 665 q 488 881 428 818 q 668 943 549 943 q 833 917 725 943 l 867 908 l 824 768 z "},"¤":{"ha":778,"x_min":124,"x_max":818,"o":"m 589 104 q 470 75 529 75 q 353 104 411 75 l 251 3 l 124 131 l 225 232 q 197 349 197 290 q 225 468 197 408 l 124 569 l 251 697 l 353 596 q 470 624 411 624 q 589 596 529 624 l 690 697 l 818 569 l 717 468 q 744 349 744 408 q 717 232 744 290 l 818 131 l 690 3 l 589 104 m 397 276 q 413 261 397 276 q 471 246 428 246 q 544 276 514 246 q 575 350 575 307 q 544 424 575 393 q 471 454 514 454 q 397 424 428 454 q 367 350 367 393 q 397 276 367 307 z "},"¥":{"ha":778,"x_min":143,"x_max":1014,"o":"m 193 383 l 229 547 l 326 547 l 176 917 l 383 917 l 519 596 l 767 917 l 1014 917 l 717 547 l 815 547 l 776 383 l 593 383 l 581 368 l 572 338 l 767 338 l 729 174 l 535 174 l 494 0 l 304 0 l 346 174 l 143 174 l 182 338 l 383 338 l 390 368 l 386 383 l 193 383 z "},"¦":{"ha":465,"x_min":218,"x_max":404,"o":"m 218 972 l 404 972 l 404 456 l 218 456 l 218 972 m 218 236 l 404 236 l 404 -292 l 218 -292 l 218 236 z "},"§":{"ha":676,"x_min":22,"x_max":789,"o":"m 747 697 q 537 719 603 719 q 432 697 471 719 q 393 632 393 674 q 408 595 393 606 q 431 580 422 585 q 458 569 439 575 q 486 561 476 564 q 550 546 507 554 q 711 369 711 507 q 688 282 711 329 q 645 209 665 235 q 590 143 625 183 q 614 69 614 106 q 608 -3 614 32 q 581 -86 603 -37 q 522 -172 558 -135 q 418 -235 486 -208 q 283 -261 350 -261 q 61 -239 178 -261 l 22 -231 l 75 -76 q 281 -96 213 -96 q 391 -74 350 -96 q 432 -12 432 -51 q 408 35 432 19 q 346 57 399 42 q 271 79 293 72 q 146 148 183 107 q 108 253 108 189 q 242 481 108 382 q 214 594 214 506 q 300 781 214 688 q 411 856 340 826 q 544 885 482 885 q 754 860 650 885 l 789 851 l 747 697 m 346 418 q 315 364 332 401 q 299 311 299 326 q 299 292 299 296 q 301 285 300 288 q 306 279 303 282 q 328 264 317 268 q 342 258 339 260 q 352 254 346 257 q 367 248 358 251 q 413 231 375 244 q 468 210 451 217 q 501 264 483 225 q 518 327 518 303 q 498 366 518 351 q 418 396 478 381 q 346 418 358 411 z "},"¨":{"ha":714,"x_min":299,"x_max":765,"o":"m 299 835 l 342 1022 l 496 1022 l 451 835 l 299 835 m 568 835 l 611 1022 l 765 1022 l 721 835 l 568 835 z "},"©":{"ha":890,"x_min":201,"x_max":967,"o":"m 588 208 q 503 208 588 208 q 310 322 419 208 q 201 605 201 436 q 310 885 201 774 q 587 997 418 997 q 861 883 756 997 q 967 600 967 768 q 861 320 967 432 q 588 208 756 208 m 373 823 q 330 777 373 823 q 288 603 288 732 q 372 383 288 474 q 584 292 457 292 q 796 382 711 292 q 881 601 881 472 q 795 822 881 731 q 584 914 710 914 q 373 823 458 914 m 713 399 q 587 374 674 374 q 459 424 500 374 q 418 603 418 474 q 460 782 418 733 q 601 831 503 831 q 700 814 656 831 l 713 810 l 703 690 q 618 699 654 699 q 572 679 582 699 q 561 610 561 660 q 610 506 561 506 l 703 513 l 713 399 z "},"ª":{"ha":457,"x_min":132,"x_max":610,"o":"m 386 481 q 249 436 317 436 q 151 478 181 436 q 133 533 133 503 q 203 692 133 643 q 344 729 250 725 l 433 733 l 442 764 q 388 785 444 785 l 203 775 l 222 879 q 432 915 329 915 q 579 881 535 915 q 610 808 610 858 q 603 756 610 785 l 558 560 q 581 549 567 551 l 551 435 q 427 445 457 435 q 386 481 397 456 m 296 586 q 332 558 296 558 q 400 581 356 558 l 411 636 l 350 632 q 296 586 296 628 z "},"«":{"ha":669,"x_min":74,"x_max":800,"o":"m 800 606 l 749 424 l 592 333 l 703 226 l 657 60 l 421 294 l 453 379 l 800 606 m 453 606 l 401 424 l 244 333 l 356 226 l 310 60 l 74 294 l 106 379 l 453 606 z "},"¬":{"ha":778,"x_min":157,"x_max":763,"o":"m 157 497 l 763 497 l 763 144 l 596 144 l 596 331 l 157 331 l 157 497 z "},"®":{"ha":890,"x_min":201,"x_max":967,"o":"m 588 208 q 504 208 588 208 q 310 322 419 208 q 201 604 201 435 q 310 885 201 774 q 586 997 418 997 q 860 883 754 997 q 967 600 967 768 q 862 320 967 432 q 588 208 757 208 m 373 822 q 330 776 373 822 q 288 603 288 731 q 374 383 288 475 q 585 292 460 292 q 796 383 711 292 q 881 602 881 474 q 795 822 881 731 q 584 914 710 914 q 373 822 458 914 m 550 513 l 550 383 l 417 383 l 417 821 l 606 821 q 721 785 678 821 q 764 685 764 750 q 753 591 764 621 q 711 536 742 561 l 768 383 l 629 383 l 590 513 l 550 513 m 549 721 l 549 611 l 588 611 q 635 666 635 611 q 586 721 635 721 l 549 721 z "},"¯":{"ha":642,"x_min":301,"x_max":765,"o":"m 301 871 l 336 1022 l 765 1022 l 729 871 l 301 871 z "},"°":{"ha":778,"x_min":354,"x_max":771,"o":"m 412 603 q 383 631 412 603 q 354 753 354 660 q 412 903 354 846 q 563 961 469 961 q 713 903 656 961 q 771 753 771 846 q 713 603 771 660 q 563 546 656 546 q 412 603 469 546 m 487 830 q 473 815 487 830 q 458 753 458 800 q 487 676 458 706 q 563 647 515 647 q 640 676 610 647 q 669 753 669 706 q 640 830 669 800 q 563 860 610 860 q 487 830 515 860 z "},"±":{"ha":778,"x_min":138,"x_max":776,"o":"m 138 375 l 138 542 l 372 542 l 372 692 l 539 692 l 539 542 l 776 542 l 776 375 l 539 375 l 539 236 l 372 236 l 372 375 l 138 375 m 138 193 l 776 193 l 776 26 l 138 26 l 138 193 z "},"²":{"ha":389,"x_min":185,"x_max":590,"o":"m 296 1100 q 474 1113 400 1113 q 575 1081 547 1113 q 590 1034 590 1063 q 581 967 590 1006 q 469 835 561 892 l 407 796 l 538 796 l 506 664 l 185 664 l 215 789 l 338 871 q 421 950 413 921 q 413 967 424 963 q 375 971 403 971 l 267 963 l 296 1100 z "},"³":{"ha":389,"x_min":178,"x_max":589,"o":"m 446 1113 q 588 1025 588 1113 q 583 989 588 1008 q 519 892 567 917 q 549 836 549 878 q 542 790 549 817 q 343 649 507 649 l 178 660 l 218 789 q 344 781 301 781 q 393 803 388 781 q 389 819 396 815 q 361 822 382 822 l 269 822 l 299 940 l 388 940 q 419 956 415 940 q 415 976 424 971 q 389 981 407 981 l 269 974 l 293 1100 q 446 1113 390 1113 z "},"´":{"ha":776,"x_min":339,"x_max":719,"o":"m 353 800 l 339 949 l 706 1075 l 719 908 l 353 800 z "},"µ":{"ha":778,"x_min":38,"x_max":832,"o":"m 363 311 q 350 217 350 251 q 362 164 350 183 q 400 144 374 144 q 517 207 447 144 l 539 228 l 646 694 l 832 694 l 672 0 l 494 0 l 503 68 q 419 10 471 36 q 335 -17 367 -17 q 288 -12 304 -17 l 224 -292 l 38 -292 l 178 322 l 182 336 q 185 349 182 340 l 264 694 l 450 694 l 382 403 l 383 403 l 363 311 z "},"¶":{"ha":785,"x_min":194,"x_max":944,"o":"m 194 639 q 283 871 194 769 q 510 972 372 972 l 944 972 l 910 825 l 863 825 l 665 0 l 517 0 l 713 825 l 633 825 l 436 0 l 286 0 l 388 425 q 240 486 285 426 q 194 639 194 546 z "},"·":{"ha":210,"x_min":78,"x_max":318,"o":"m 78 288 l 131 522 l 318 522 l 265 288 l 78 288 z "},"¸":{"ha":1099,"x_min":406,"x_max":707,"o":"m 578 -46 q 707 -131 707 -46 q 701 -172 707 -149 q 522 -318 667 -318 q 422 -307 467 -318 l 406 -303 l 433 -190 q 497 -192 475 -192 q 556 -158 547 -192 q 549 -136 560 -142 q 513 -131 539 -131 l 482 -131 l 513 7 l 585 7 l 569 -46 l 578 -46 z "},"¹":{"ha":389,"x_min":263,"x_max":568,"o":"m 263 993 l 435 1097 l 568 1097 l 461 664 l 314 664 l 381 935 l 304 890 l 263 993 z "},"º":{"ha":476,"x_min":149,"x_max":642,"o":"m 446 917 q 568 893 513 917 q 635 821 624 869 q 640 762 640 794 q 631 686 640 729 q 528 492 597 547 q 332 436 460 436 q 196 481 242 436 q 150 594 150 526 q 163 688 150 639 q 261 864 193 811 q 446 917 329 917 m 311 622 q 311 608 311 622 q 323 582 311 594 q 370 569 335 569 q 429 594 406 569 q 465 665 453 618 q 478 733 478 711 q 418 789 478 789 q 358 767 379 789 q 324 698 336 746 q 311 622 311 650 z "},"»":{"ha":658,"x_min":26,"x_max":739,"o":"m 360 60 l 411 242 l 568 332 l 457 439 l 503 606 l 739 371 l 707 286 l 360 60 m 26 60 l 78 242 l 235 332 l 124 439 l 169 606 l 406 371 l 374 286 l 26 60 z "},"¼":{"ha":881,"x_min":142,"x_max":939,"o":"m 219 993 l 392 1097 l 525 1097 l 418 664 l 271 664 l 338 935 l 261 890 l 219 993 m 317 -33 l 142 28 l 740 997 l 915 936 l 317 -33 m 717 0 l 728 49 l 540 49 l 571 171 l 694 433 l 858 433 l 724 181 l 761 181 l 813 306 l 939 306 l 907 181 l 922 181 l 889 49 l 874 49 l 863 0 l 717 0 z "},"½":{"ha":899,"x_min":142,"x_max":976,"o":"m 219 993 l 392 1097 l 525 1097 l 418 664 l 271 664 l 338 935 l 261 890 l 219 993 m 317 -33 l 142 28 l 740 997 l 915 936 l 317 -33 m 682 436 q 860 449 786 449 q 961 417 933 449 q 976 370 976 399 q 967 303 976 342 q 856 171 947 228 l 793 132 l 924 132 l 892 0 l 571 0 l 601 125 l 724 207 q 807 286 799 257 q 799 303 810 299 q 761 307 789 307 l 653 299 l 682 436 z "},"¾":{"ha":876,"x_min":138,"x_max":935,"o":"m 418 1113 q 560 1025 560 1113 q 556 989 560 1008 q 492 892 539 917 q 521 836 521 878 q 514 790 521 817 q 315 649 479 649 l 150 660 l 190 789 q 317 781 274 781 q 365 803 360 781 q 361 819 368 815 q 333 822 354 822 l 242 822 l 271 940 l 360 940 q 392 956 388 940 q 388 976 396 971 q 361 981 379 981 l 242 974 l 265 1100 q 418 1113 363 1113 m 313 -33 l 138 28 l 736 997 l 911 936 l 313 -33 m 713 0 l 724 49 l 536 49 l 567 171 l 690 433 l 854 433 l 719 181 l 757 181 l 808 306 l 935 306 l 903 181 l 918 181 l 885 49 l 869 49 l 858 0 l 713 0 z "},"¿":{"ha":600,"x_min":36,"x_max":594,"o":"m 36 -50 q 81 105 36 44 q 246 249 125 165 q 332 350 321 300 l 344 406 l 519 406 q 508 275 519 338 q 378 128 496 213 q 265 38 296 71 q 233 -34 233 6 q 258 -87 233 -74 q 331 -100 282 -100 q 506 -87 422 -100 l 533 -83 l 514 -229 q 292 -267 389 -267 q 36 -50 36 -267 m 594 694 l 542 461 l 353 461 l 406 694 l 594 694 z "},"À":{"ha":765,"x_min":18,"x_max":840,"o":"m 532 1319 l 840 1193 l 756 1047 l 440 1154 l 532 1319 m 18 0 l 443 944 l 774 944 l 744 0 l 553 0 l 558 164 l 283 164 l 210 0 l 18 0 m 556 778 l 356 331 l 565 331 l 585 778 l 556 778 z "},"Á":{"ha":765,"x_min":18,"x_max":858,"o":"m 492 1063 l 478 1210 l 844 1336 l 858 1169 l 492 1063 m 18 0 l 443 944 l 774 944 l 744 0 l 553 0 l 558 164 l 283 164 l 210 0 l 18 0 m 556 778 l 356 331 l 565 331 l 585 778 l 556 778 z "},"Â":{"ha":765,"x_min":18,"x_max":868,"o":"m 379 1082 l 624 1293 l 735 1293 l 868 1082 l 699 1082 l 663 1158 l 576 1082 l 379 1082 m 18 0 l 443 944 l 774 944 l 744 0 l 553 0 l 558 164 l 283 164 l 210 0 l 18 0 m 556 778 l 356 331 l 565 331 l 585 778 l 556 778 z "},"Ã":{"ha":765,"x_min":18,"x_max":879,"o":"m 799 1109 q 775 1095 799 1109 q 717 1082 751 1082 q 610 1112 683 1082 q 517 1142 536 1142 q 417 1100 485 1142 l 396 1088 l 390 1217 q 477 1279 432 1253 q 560 1306 522 1306 q 672 1276 599 1306 q 758 1247 744 1247 q 854 1286 788 1247 l 876 1300 l 879 1169 q 799 1109 846 1136 m 18 0 l 443 944 l 774 944 l 744 0 l 553 0 l 558 164 l 283 164 l 210 0 l 18 0 m 556 778 l 356 331 l 565 331 l 585 778 l 556 778 z "},"Ä":{"ha":765,"x_min":18,"x_max":901,"o":"m 428 1094 l 471 1282 l 625 1282 l 581 1094 l 428 1094 m 704 1094 l 747 1282 l 901 1282 l 856 1094 l 704 1094 m 18 0 l 443 944 l 774 944 l 744 0 l 553 0 l 558 164 l 283 164 l 210 0 l 18 0 m 556 778 l 356 331 l 565 331 l 585 778 l 556 778 z "},"Å":{"ha":765,"x_min":18,"x_max":810,"o":"m 435 925 q 433 953 433 936 q 439 996 433 971 q 518 1117 458 1076 q 659 1158 578 1158 q 781 1118 740 1158 q 810 1044 810 1090 q 772 926 810 979 l 744 0 l 553 0 l 558 164 l 283 164 l 210 0 l 18 0 l 435 925 m 556 778 l 356 331 l 565 331 l 585 778 l 556 778 m 558 996 q 557 983 557 992 q 569 963 557 974 q 610 953 582 953 q 682 996 672 953 q 683 1012 683 1001 q 668 1031 683 1022 q 631 1039 653 1039 q 558 996 569 1039 z "},"Æ":{"ha":1047,"x_min":19,"x_max":1224,"o":"m 435 0 l 474 165 l 275 165 l 201 0 l 19 0 l 447 958 l 1224 958 l 1182 776 l 799 779 l 746 558 l 1051 558 l 1011 385 l 704 385 l 656 181 l 1039 181 l 999 0 l 435 0 m 546 778 l 356 343 l 517 343 l 618 778 l 546 778 z "},"Ç":{"ha":686,"x_min":138,"x_max":861,"o":"m 408 -46 q 538 -131 538 -46 q 532 -172 538 -149 q 353 -318 497 -318 q 253 -307 297 -318 l 236 -303 l 264 -190 q 328 -192 306 -192 q 386 -158 378 -192 q 380 -136 390 -142 q 343 -131 369 -131 l 313 -131 l 339 -10 q 138 257 138 28 q 206 631 138 460 q 297 798 243 725 q 435 916 351 871 q 624 961 519 961 q 828 931 725 961 l 861 919 l 817 778 q 617 794 731 794 q 465 718 531 794 q 367 524 399 642 q 335 271 335 406 q 447 150 335 150 q 640 164 554 150 l 672 168 l 657 19 q 422 -17 528 -17 l 408 -17 l 400 -46 l 408 -46 z "},"È":{"ha":690,"x_min":90,"x_max":861,"o":"m 467 1319 l 775 1193 l 690 1047 l 375 1154 l 467 1319 m 90 0 l 307 944 l 861 944 l 822 778 l 461 778 l 410 556 l 696 556 l 657 389 l 372 389 l 321 167 l 683 167 l 646 0 l 90 0 z "},"É":{"ha":690,"x_min":90,"x_max":861,"o":"m 485 1063 l 471 1210 l 838 1336 l 851 1169 l 485 1063 m 90 0 l 307 944 l 861 944 l 822 778 l 461 778 l 410 556 l 696 556 l 657 389 l 372 389 l 321 167 l 683 167 l 646 0 l 90 0 z "},"Ê":{"ha":690,"x_min":90,"x_max":861,"o":"m 361 1086 l 606 1297 l 717 1297 l 850 1086 l 681 1086 l 644 1163 l 558 1086 l 361 1086 m 90 0 l 307 944 l 861 944 l 822 778 l 461 778 l 410 556 l 696 556 l 657 389 l 372 389 l 321 167 l 683 167 l 646 0 l 90 0 z "},"Ë":{"ha":690,"x_min":90,"x_max":872,"o":"m 399 1094 l 442 1282 l 596 1282 l 551 1094 l 399 1094 m 675 1094 l 718 1282 l 872 1282 l 826 1094 l 675 1094 m 90 0 l 307 944 l 861 944 l 822 778 l 461 778 l 410 556 l 696 556 l 657 389 l 372 389 l 321 167 l 683 167 l 646 0 l 90 0 z "},"Ì":{"ha":372,"x_min":90,"x_max":600,"o":"m 292 1319 l 600 1193 l 515 1047 l 200 1154 l 292 1319 m 90 0 l 308 944 l 500 944 l 282 0 l 90 0 z "},"Í":{"ha":372,"x_min":90,"x_max":685,"o":"m 318 1063 l 304 1210 l 671 1336 l 685 1169 l 318 1063 m 90 0 l 308 944 l 500 944 l 282 0 l 90 0 z "},"Î":{"ha":372,"x_min":90,"x_max":672,"o":"m 183 1086 l 428 1297 l 539 1297 l 672 1086 l 503 1086 l 467 1163 l 381 1086 l 183 1086 m 90 0 l 308 944 l 500 944 l 282 0 l 90 0 z "},"Ï":{"ha":372,"x_min":90,"x_max":693,"o":"m 219 1111 l 263 1299 l 417 1299 l 372 1111 l 219 1111 m 496 1111 l 539 1299 l 693 1299 l 647 1111 l 496 1111 m 90 0 l 308 944 l 500 944 l 282 0 l 90 0 z "},"Ð":{"ha":851,"x_min":101,"x_max":928,"o":"m 440 0 l 101 0 l 189 382 l 115 382 l 156 571 l 233 571 l 319 944 l 617 944 q 928 657 928 944 q 853 290 928 454 q 621 39 768 107 q 440 0 539 0 m 669 348 q 685 387 669 348 q 715 506 700 426 q 731 655 731 586 q 692 751 731 724 q 578 778 654 778 l 472 778 l 425 571 l 576 571 l 535 382 l 381 382 l 332 167 l 457 167 q 583 218 528 167 q 669 348 639 269 z "},"Ñ":{"ha":904,"x_min":90,"x_max":1032,"o":"m 860 1108 q 836 1094 860 1108 q 778 1081 813 1081 q 671 1110 744 1081 q 578 1140 597 1140 q 478 1100 540 1140 l 457 1086 l 451 1215 q 538 1278 493 1251 q 622 1304 583 1304 q 733 1275 660 1304 q 819 1246 806 1246 q 915 1286 849 1246 l 938 1299 l 940 1168 q 860 1108 907 1135 m 90 0 l 308 944 l 613 944 l 663 204 l 679 204 l 847 944 l 1032 944 l 814 0 l 525 0 l 464 754 l 447 754 l 271 0 l 90 0 z "},"Ò":{"ha":854,"x_min":140,"x_max":929,"o":"m 550 1319 l 858 1193 l 774 1047 l 458 1154 l 550 1319 m 338 312 q 338 264 338 312 q 367 183 338 215 q 469 150 397 150 q 588 197 540 150 q 692 394 653 263 q 732 653 732 526 q 703 762 732 729 q 601 794 674 794 q 488 753 529 794 q 378 547 418 685 q 338 312 338 408 m 929 672 q 872 317 929 482 q 706 68 815 153 q 447 -17 597 -17 q 140 272 140 -17 q 196 615 140 454 q 358 869 251 776 q 622 961 465 961 q 929 672 929 961 z "},"Ó":{"ha":854,"x_min":140,"x_max":929,"o":"m 338 312 q 338 264 338 312 q 367 183 338 215 q 469 150 397 150 q 588 197 540 150 q 692 394 653 263 q 732 653 732 526 q 703 762 732 729 q 601 794 674 794 q 488 753 529 794 q 378 547 418 685 q 338 312 338 408 m 929 672 q 872 317 929 482 q 706 68 815 153 q 447 -17 597 -17 q 140 272 140 -17 q 196 615 140 454 q 358 869 251 776 q 622 961 465 961 q 929 672 929 961 m 539 1063 l 525 1210 l 892 1336 l 906 1169 l 539 1063 z "},"Ô":{"ha":854,"x_min":140,"x_max":929,"o":"m 338 312 q 338 264 338 312 q 367 183 338 215 q 469 150 397 150 q 588 197 540 150 q 692 394 653 263 q 732 653 732 526 q 703 762 732 729 q 601 794 674 794 q 488 753 529 794 q 378 547 418 685 q 338 312 338 408 m 929 672 q 872 317 929 482 q 706 68 815 153 q 447 -17 597 -17 q 140 272 140 -17 q 196 615 140 454 q 358 869 251 776 q 622 961 465 961 q 929 672 929 961 m 429 1082 l 674 1293 l 785 1293 l 918 1082 l 749 1082 l 713 1158 l 626 1082 l 429 1082 z "},"Õ":{"ha":854,"x_min":140,"x_max":944,"o":"m 864 1108 q 840 1094 864 1108 q 783 1081 817 1081 q 675 1110 749 1081 q 582 1140 601 1140 q 483 1100 544 1140 l 461 1086 l 456 1215 q 542 1278 497 1251 q 626 1304 588 1304 q 737 1275 664 1304 q 822 1246 810 1246 q 919 1286 853 1246 l 942 1299 l 944 1168 q 864 1108 911 1135 m 338 312 q 338 264 338 312 q 367 183 338 215 q 469 150 397 150 q 588 197 540 150 q 692 394 653 263 q 732 653 732 526 q 703 762 732 729 q 601 794 674 794 q 488 753 529 794 q 378 547 418 685 q 338 312 338 408 m 929 672 q 872 317 929 482 q 706 68 815 153 q 447 -17 597 -17 q 140 272 140 -17 q 196 615 140 454 q 358 869 251 776 q 622 961 465 961 q 929 672 929 961 z "},"Ö":{"ha":854,"x_min":140,"x_max":940,"o":"m 446 1085 l 489 1272 l 657 1272 l 613 1085 l 446 1085 m 729 1085 l 772 1272 l 940 1272 l 896 1085 l 729 1085 m 338 312 q 338 264 338 312 q 367 183 338 215 q 469 150 397 150 q 588 197 540 150 q 692 394 653 263 q 732 653 732 526 q 703 762 732 729 q 601 794 674 794 q 488 753 529 794 q 378 547 418 685 q 338 312 338 408 m 929 672 q 872 317 929 482 q 706 68 815 153 q 447 -17 597 -17 q 140 272 140 -17 q 196 615 140 454 q 358 869 251 776 q 622 961 465 961 q 929 672 929 961 z "},"×":{"ha":778,"x_min":158,"x_max":781,"o":"m 278 657 l 469 461 l 664 660 l 781 542 l 582 347 l 781 154 l 663 36 l 469 233 l 276 38 l 158 154 l 356 347 l 160 539 l 278 657 z "},"Ø":{"ha":854,"x_min":74,"x_max":1011,"o":"m 140 272 q 196 615 140 454 q 358 869 251 776 q 622 961 465 961 q 782 933 718 961 l 908 1118 l 1011 1075 l 869 867 q 929 672 929 793 q 872 317 929 482 q 438 -17 757 -17 q 286 10 354 -17 l 165 -168 l 74 -112 l 200 74 q 140 272 140 146 m 392 164 q 480 150 419 150 q 588 197 540 150 q 692 394 653 263 q 732 653 732 526 l 732 664 l 392 164 m 678 781 q 590 794 650 794 q 488 753 529 794 q 378 547 418 685 q 338 292 338 408 l 338 278 l 678 781 z "},"Ù":{"ha":826,"x_min":143,"x_max":963,"o":"m 540 1319 l 849 1193 l 764 1047 l 449 1154 l 540 1319 m 346 321 q 333 226 333 268 q 362 167 333 183 q 462 150 390 150 q 569 188 533 150 q 626 321 606 226 l 771 944 l 963 944 l 818 321 q 687 63 778 143 q 446 -17 596 -17 q 143 197 143 -17 q 161 351 143 269 l 299 944 l 490 944 l 346 321 z "},"Ú":{"ha":826,"x_min":143,"x_max":963,"o":"m 346 321 q 333 226 333 268 q 362 167 333 183 q 462 150 390 150 q 569 188 533 150 q 626 321 606 226 l 771 944 l 963 944 l 818 321 q 687 63 778 143 q 446 -17 596 -17 q 143 197 143 -17 q 161 351 143 269 l 299 944 l 490 944 l 346 321 m 501 1063 l 488 1210 l 854 1336 l 868 1169 l 501 1063 z "},"Û":{"ha":826,"x_min":143,"x_max":963,"o":"m 346 321 q 333 226 333 268 q 362 167 333 183 q 462 150 390 150 q 569 188 533 150 q 626 321 606 226 l 771 944 l 963 944 l 818 321 q 687 63 778 143 q 446 -17 596 -17 q 143 197 143 -17 q 161 351 143 269 l 299 944 l 490 944 l 346 321 m 410 1082 l 654 1293 l 765 1293 l 899 1082 l 729 1082 l 693 1158 l 607 1082 l 410 1082 z "},"Ü":{"ha":826,"x_min":143,"x_max":963,"o":"m 424 1085 l 467 1272 l 635 1272 l 590 1085 l 424 1085 m 707 1085 l 750 1272 l 918 1272 l 874 1085 l 707 1085 m 346 321 q 333 226 333 268 q 362 167 333 183 q 462 150 390 150 q 569 188 533 150 q 626 321 606 226 l 771 944 l 963 944 l 818 321 q 687 63 778 143 q 446 -17 596 -17 q 143 197 143 -17 q 161 351 143 269 l 299 944 l 490 944 l 346 321 z "},"Ý":{"ha":700,"x_min":219,"x_max":918,"o":"m 479 1063 l 465 1210 l 832 1336 l 846 1169 l 479 1063 m 918 944 l 529 400 l 435 0 l 257 0 l 351 408 l 219 944 l 414 944 l 481 576 l 715 944 l 918 944 z "},"Þ":{"ha":747,"x_min":88,"x_max":843,"o":"m 476 328 q 649 483 610 328 q 654 538 654 510 q 642 590 654 565 q 551 635 619 633 l 418 638 l 344 328 l 476 328 m 594 824 q 797 725 733 824 q 842 571 842 660 q 832 483 842 529 q 691 229 796 321 q 438 138 586 138 q 433 138 436 138 l 300 139 l 268 0 l 88 0 l 314 958 l 496 958 l 461 824 l 594 824 z "},"ß":{"ha":783,"x_min":75,"x_max":864,"o":"m 246 722 q 362 931 282 874 q 583 989 442 989 q 794 937 724 989 q 864 788 864 885 q 836 668 864 715 q 736 592 808 621 q 638 547 664 564 q 613 506 613 529 q 629 467 613 482 q 697 418 646 451 q 765 369 747 385 q 810 250 810 332 q 733 55 810 126 q 524 -17 657 -17 q 333 13 433 -17 l 300 22 l 340 158 q 499 142 438 142 q 591 166 561 142 q 621 219 621 190 q 607 263 621 249 q 533 313 593 276 q 448 382 472 349 q 424 482 424 415 q 460 594 424 549 q 567 674 496 640 q 656 723 638 707 q 675 768 675 739 q 569 831 675 831 q 467 799 503 831 q 414 697 431 768 l 250 0 l 75 0 l 246 722 z "},"à":{"ha":733,"x_min":111,"x_max":811,"o":"m 307 -17 q 158 52 206 -17 q 111 236 111 121 q 192 543 111 396 q 303 664 232 617 q 464 711 374 711 q 747 678 560 711 l 811 665 l 707 217 l 669 4 l 485 -3 q 503 106 497 82 q 369 -3 446 29 q 307 -17 338 -17 m 469 553 q 376 499 417 553 q 300 236 300 396 q 315 165 300 188 q 363 142 331 142 q 437 172 396 142 q 506 233 478 203 l 533 265 l 597 533 q 469 553 506 553 m 489 1072 l 796 947 l 718 810 l 400 919 l 489 1072 z "},"á":{"ha":733,"x_min":111,"x_max":833,"o":"m 307 -17 q 158 52 206 -17 q 111 236 111 121 q 192 543 111 396 q 303 664 232 617 q 464 711 374 711 q 747 678 560 711 l 811 665 l 707 217 l 669 4 l 485 -3 q 503 106 497 82 q 369 -3 446 29 q 307 -17 338 -17 m 469 553 q 376 499 417 553 q 300 236 300 396 q 315 165 300 188 q 363 142 331 142 q 437 172 396 142 q 506 233 478 203 l 533 265 l 597 533 q 469 553 506 553 m 467 800 l 453 949 l 819 1075 l 833 908 l 467 800 z "},"â":{"ha":733,"x_min":111,"x_max":811,"o":"m 294 799 l 528 1042 l 667 1042 l 786 799 l 603 799 l 569 888 l 489 799 l 294 799 m 307 -17 q 158 52 206 -17 q 111 236 111 121 q 192 543 111 396 q 303 664 232 617 q 464 711 374 711 q 747 678 560 711 l 811 665 l 707 217 l 669 4 l 485 -3 q 503 106 497 82 q 369 -3 446 29 q 307 -17 338 -17 m 469 553 q 376 499 417 553 q 300 236 300 396 q 315 165 300 188 q 363 142 331 142 q 437 172 396 142 q 506 233 478 203 l 533 265 l 597 533 q 469 553 506 553 z "},"ã":{"ha":733,"x_min":111,"x_max":847,"o":"m 307 -17 q 158 52 206 -17 q 111 236 111 121 q 192 543 111 396 q 303 664 232 617 q 464 711 374 711 q 747 678 560 711 l 811 665 l 707 217 l 669 4 l 485 -3 q 503 106 497 82 q 369 -3 446 29 q 307 -17 338 -17 m 469 553 q 376 499 417 553 q 300 236 300 396 q 315 165 300 188 q 363 142 331 142 q 437 172 396 142 q 506 233 478 203 l 533 265 l 597 533 q 469 553 506 553 m 819 883 q 760 844 803 869 q 683 819 717 819 q 587 850 650 819 q 506 881 524 881 q 408 839 472 881 l 386 825 l 382 953 q 410 978 393 963 q 469 1018 426 993 q 549 1043 513 1043 q 647 1013 585 1043 q 724 983 710 983 q 819 1025 750 983 l 842 1038 l 847 908 l 819 883 z "},"ä":{"ha":733,"x_min":111,"x_max":831,"o":"m 336 835 l 379 1022 l 547 1022 l 503 835 l 336 835 m 619 835 l 663 1022 l 831 1022 l 786 835 l 619 835 m 307 -17 q 158 52 206 -17 q 111 236 111 121 q 192 543 111 396 q 303 664 232 617 q 464 711 374 711 q 747 678 560 711 l 811 665 l 707 217 l 669 4 l 485 -3 q 503 106 497 82 q 369 -3 446 29 q 307 -17 338 -17 m 469 553 q 376 499 417 553 q 300 236 300 396 q 315 165 300 188 q 363 142 331 142 q 437 172 396 142 q 506 233 478 203 l 533 265 l 597 533 q 469 553 506 553 z "},"å":{"ha":733,"x_min":111,"x_max":811,"o":"m 307 -17 q 158 52 206 -17 q 111 236 111 121 q 192 543 111 396 q 303 664 232 617 q 464 711 374 711 q 747 678 560 711 l 811 665 l 707 217 l 669 4 l 485 -3 q 503 106 497 82 q 369 -3 446 29 q 307 -17 338 -17 m 469 553 q 376 499 417 553 q 300 236 300 396 q 315 165 300 188 q 363 142 331 142 q 437 172 396 142 q 506 233 478 203 l 533 265 l 597 533 q 469 553 506 553 m 525 1018 q 638 1060 572 1060 q 729 1017 704 1060 q 744 963 744 992 q 674 800 744 858 q 560 760 625 760 q 469 803 494 760 q 453 857 453 829 q 525 1018 453 956 m 560 911 q 557 898 557 906 q 565 880 557 890 q 590 869 572 869 q 640 910 628 869 q 642 923 642 915 q 633 940 642 931 q 610 949 625 949 q 560 911 571 949 z "},"æ":{"ha":992,"x_min":71,"x_max":1057,"o":"m 628 232 q 724 151 628 151 q 925 161 790 151 l 963 164 l 931 22 q 667 -17 804 -17 q 478 51 529 -17 q 360 8 442 32 q 233 -17 279 -17 q 101 54 146 -17 q 72 142 72 101 q 79 213 72 183 q 292 419 119 388 q 419 433 369 433 q 485 433 469 433 q 494 474 494 451 q 450 536 494 536 q 239 522 364 536 l 197 517 l 226 679 q 509 710 403 710 q 657 653 615 710 q 839 710 735 710 q 997 661 943 710 q 1056 506 1056 607 q 1038 385 1056 450 l 1006 267 l 632 269 q 628 232 628 250 m 256 199 q 299 143 256 143 q 439 161 364 143 q 438 206 438 175 q 453 294 438 236 q 343 289 418 294 q 289 267 313 286 q 256 199 256 242 m 872 408 q 882 464 882 443 q 879 497 882 485 q 805 550 868 550 q 712 515 742 550 q 664 411 682 479 l 872 408 z "},"ç":{"ha":569,"x_min":115,"x_max":685,"o":"m 364 -46 q 493 -131 493 -46 q 488 -172 493 -149 q 308 -318 453 -318 q 208 -307 253 -318 l 192 -303 l 219 -190 q 283 -192 261 -192 q 342 -158 333 -192 q 335 -136 346 -142 q 299 -131 325 -131 l 268 -131 l 294 -12 q 163 63 211 1 q 115 225 115 125 q 209 574 115 438 q 478 711 303 711 q 656 678 561 711 l 685 668 l 638 532 q 469 550 531 550 q 347 463 390 550 q 304 260 304 376 q 410 144 304 144 l 558 156 l 543 18 q 364 -17 456 -12 l 356 -46 l 364 -46 z "},"è":{"ha":661,"x_min":113,"x_max":736,"o":"m 299 219 q 299 201 299 219 q 327 163 299 183 q 399 142 356 142 q 594 156 494 142 l 631 160 l 610 22 q 354 -17 481 -17 q 170 40 228 -17 q 113 207 113 97 q 135 403 113 317 q 201 558 157 489 q 320 669 244 628 q 493 710 396 710 q 736 503 736 710 q 647 321 736 371 q 351 271 558 271 l 303 271 q 299 219 299 254 m 381 408 q 515 429 476 408 q 553 500 553 450 q 483 560 553 560 q 324 408 360 560 l 381 408 m 363 1072 l 669 947 l 592 810 l 274 919 l 363 1072 z "},"é":{"ha":661,"x_min":113,"x_max":758,"o":"m 299 219 q 299 201 299 219 q 327 163 299 183 q 399 142 356 142 q 594 156 494 142 l 631 160 l 610 22 q 354 -17 481 -17 q 170 40 228 -17 q 113 207 113 97 q 135 403 113 317 q 201 558 157 489 q 320 669 244 628 q 493 710 396 710 q 736 503 736 710 q 647 321 736 371 q 351 271 558 271 l 303 271 q 299 219 299 254 m 381 408 q 515 429 476 408 q 553 500 553 450 q 483 560 553 560 q 324 408 360 560 l 381 408 m 392 800 l 378 949 l 744 1075 l 758 908 l 392 800 z "},"ê":{"ha":661,"x_min":113,"x_max":749,"o":"m 257 799 l 490 1042 l 629 1042 l 749 799 l 565 799 l 532 888 l 451 799 l 257 799 m 299 219 q 299 201 299 219 q 327 163 299 183 q 399 142 356 142 q 594 156 494 142 l 631 160 l 610 22 q 354 -17 481 -17 q 170 40 228 -17 q 113 207 113 97 q 135 403 113 317 q 201 558 157 489 q 320 669 244 628 q 493 710 396 710 q 736 503 736 710 q 647 321 736 371 q 351 271 558 271 l 303 271 q 299 219 299 254 m 381 408 q 515 429 476 408 q 553 500 553 450 q 483 560 553 560 q 324 408 360 560 l 381 408 z "},"ë":{"ha":661,"x_min":113,"x_max":788,"o":"m 293 835 l 336 1022 l 504 1022 l 460 835 l 293 835 m 576 835 l 619 1022 l 788 1022 l 743 835 l 576 835 m 299 219 q 299 201 299 219 q 327 163 299 183 q 399 142 356 142 q 594 156 494 142 l 631 160 l 610 22 q 354 -17 481 -17 q 170 40 228 -17 q 113 207 113 97 q 135 403 113 317 q 201 558 157 489 q 320 669 244 628 q 493 710 396 710 q 736 503 736 710 q 647 321 736 371 q 351 271 558 271 l 303 271 q 299 219 299 254 m 381 408 q 515 429 476 408 q 553 500 553 450 q 483 560 553 560 q 324 408 360 560 l 381 408 z "},"ì":{"ha":338,"x_min":76,"x_max":494,"o":"m 76 0 l 236 694 l 422 694 l 263 0 l 76 0 m 188 1072 l 494 947 l 417 810 l 99 919 l 188 1072 z "},"í":{"ha":338,"x_min":76,"x_max":619,"o":"m 76 0 l 236 694 l 422 694 l 263 0 l 76 0 m 253 800 l 239 949 l 606 1075 l 619 908 l 253 800 z "},"î":{"ha":338,"x_min":76,"x_max":588,"o":"m 96 799 l 329 1042 l 468 1042 l 588 799 l 404 799 l 371 888 l 290 799 l 96 799 m 76 0 l 236 694 l 422 694 l 263 0 l 76 0 z "},"ï":{"ha":338,"x_min":76,"x_max":618,"o":"m 124 835 l 167 1022 l 335 1022 l 290 835 l 124 835 m 407 835 l 450 1022 l 618 1022 l 574 835 l 407 835 m 76 0 l 236 694 l 422 694 l 263 0 l 76 0 z "},"ð":{"ha":732,"x_min":100,"x_max":818,"o":"m 817 629 q 799 490 817 565 q 633 108 735 228 q 346 -12 531 -12 q 139 82 201 -12 q 100 218 100 143 q 113 307 100 260 q 242 525 149 442 q 471 608 336 608 q 610 586 551 608 l 629 578 q 632 614 632 597 q 529 756 632 710 l 381 653 l 317 753 l 379 796 l 290 808 l 351 969 q 579 933 488 963 l 715 1026 l 775 926 l 700 874 q 817 629 817 788 m 290 246 q 388 164 290 164 q 593 411 531 164 q 444 442 532 442 q 357 405 394 442 q 303 308 319 368 q 290 246 290 274 z "},"ñ":{"ha":713,"x_min":76,"x_max":808,"o":"m 369 467 l 263 0 l 76 0 l 236 694 l 414 694 l 406 626 l 429 647 q 497 690 453 669 q 582 711 542 711 q 751 515 751 711 q 722 340 751 465 l 644 0 l 458 0 l 533 326 q 558 472 558 431 q 548 531 558 513 q 497 550 538 550 q 369 467 457 550 m 781 883 q 721 844 764 869 q 644 819 678 819 q 548 850 611 819 q 467 881 485 881 q 369 839 433 881 l 347 825 l 343 953 q 371 978 354 963 q 431 1018 388 993 q 510 1043 474 1043 q 608 1013 546 1043 q 685 983 671 983 q 781 1025 711 983 l 803 1038 l 808 908 l 781 883 z "},"ò":{"ha":689,"x_min":111,"x_max":736,"o":"m 463 710 q 736 447 736 710 q 699 232 736 335 q 578 56 661 129 q 385 -17 496 -17 q 111 246 111 -17 q 151 461 111 357 q 274 638 192 565 q 463 710 357 710 m 385 142 q 506 237 460 142 q 551 450 551 332 q 463 551 551 551 q 342 456 388 551 q 296 243 296 361 q 385 142 296 142 m 404 1072 l 711 947 l 633 810 l 315 919 l 404 1072 z "},"ó":{"ha":689,"x_min":111,"x_max":760,"o":"m 463 710 q 736 447 736 710 q 699 232 736 335 q 578 56 661 129 q 385 -17 496 -17 q 111 246 111 -17 q 151 461 111 357 q 274 638 192 565 q 463 710 357 710 m 385 142 q 506 237 460 142 q 551 450 551 332 q 463 551 551 551 q 342 456 388 551 q 296 243 296 361 q 385 142 296 142 m 393 800 l 379 949 l 746 1075 l 760 908 l 393 800 z "},"ô":{"ha":689,"x_min":111,"x_max":769,"o":"m 278 799 l 511 1042 l 650 1042 l 769 799 l 586 799 l 553 888 l 472 799 l 278 799 m 463 710 q 736 447 736 710 q 699 232 736 335 q 578 56 661 129 q 385 -17 496 -17 q 111 246 111 -17 q 151 461 111 357 q 274 638 192 565 q 463 710 357 710 m 385 142 q 506 237 460 142 q 551 450 551 332 q 463 551 551 551 q 342 456 388 551 q 296 243 296 361 q 385 142 296 142 z "},"õ":{"ha":689,"x_min":111,"x_max":774,"o":"m 463 710 q 736 447 736 710 q 699 232 736 335 q 578 56 661 129 q 385 -17 496 -17 q 111 246 111 -17 q 151 461 111 357 q 274 638 192 565 q 463 710 357 710 m 385 142 q 506 237 460 142 q 551 450 551 332 q 463 551 551 551 q 342 456 388 551 q 296 243 296 361 q 385 142 296 142 m 746 883 q 686 844 729 869 q 610 819 643 819 q 513 850 576 819 q 433 881 450 881 q 333 839 399 881 l 313 825 l 308 953 q 336 978 319 963 q 396 1018 353 993 q 475 1043 439 1043 q 574 1013 511 1043 q 650 983 636 983 q 746 1025 676 983 l 768 1038 l 774 908 l 746 883 z "},"ö":{"ha":689,"x_min":111,"x_max":783,"o":"m 463 710 q 736 447 736 710 q 699 232 736 335 q 578 56 661 129 q 385 -17 496 -17 q 111 246 111 -17 q 151 461 111 357 q 274 638 192 565 q 463 710 357 710 m 385 142 q 506 237 460 142 q 551 450 551 332 q 463 551 551 551 q 342 456 388 551 q 296 243 296 361 q 385 142 296 142 m 317 835 l 360 1022 l 514 1022 l 469 835 l 317 835 m 586 835 l 629 1022 l 783 1022 l 739 835 l 586 835 z "},"÷":{"ha":778,"x_min":150,"x_max":789,"o":"m 376 489 l 376 672 l 560 672 l 560 489 l 376 489 m 150 265 l 150 432 l 789 432 l 789 265 l 150 265 m 376 24 l 376 207 l 560 207 l 560 24 l 376 24 z "},"ø":{"ha":689,"x_min":78,"x_max":769,"o":"m 464 713 q 582 696 531 713 l 671 842 l 769 799 l 671 644 q 738 459 738 581 q 700 235 738 338 q 580 59 663 132 q 386 -14 497 -14 q 267 1 321 -14 l 175 -149 l 78 -106 l 179 53 q 113 238 113 117 q 153 464 113 360 q 276 640 193 568 q 464 713 358 713 m 464 554 q 343 459 389 554 q 297 246 297 364 l 297 235 l 383 369 l 493 550 q 464 554 481 554 m 386 144 q 507 240 461 144 q 553 453 553 335 l 553 460 l 467 326 l 357 147 q 386 144 374 144 z "},"ù":{"ha":713,"x_min":121,"x_max":796,"o":"m 410 1072 l 717 947 l 639 810 l 321 919 l 410 1072 m 290 -17 q 121 179 121 -17 q 150 354 121 233 l 228 694 l 414 694 l 339 368 q 314 224 314 264 q 326 164 314 183 q 364 144 338 144 q 481 207 411 144 l 503 228 l 610 694 l 796 694 l 636 0 l 458 0 l 467 68 q 383 10 435 36 q 290 -17 331 -17 z "},"ú":{"ha":713,"x_min":121,"x_max":796,"o":"m 290 -17 q 121 179 121 -17 q 150 354 121 233 l 228 694 l 414 694 l 339 368 q 314 224 314 264 q 326 164 314 183 q 364 144 338 144 q 481 207 411 144 l 503 228 l 610 694 l 796 694 l 636 0 l 458 0 l 467 68 q 383 10 435 36 q 290 -17 331 -17 m 399 800 l 385 949 l 751 1075 l 765 908 l 399 800 z "},"û":{"ha":713,"x_min":121,"x_max":796,"o":"m 274 799 l 507 1042 l 646 1042 l 765 799 l 582 799 l 549 888 l 468 799 l 274 799 m 290 -17 q 121 179 121 -17 q 150 354 121 233 l 228 694 l 414 694 l 339 368 q 314 224 314 264 q 326 164 314 183 q 364 144 338 144 q 481 207 411 144 l 503 228 l 610 694 l 796 694 l 636 0 l 458 0 l 467 68 q 383 10 435 36 q 290 -17 331 -17 z "},"ü":{"ha":713,"x_min":121,"x_max":796,"o":"m 300 835 l 343 1022 l 511 1022 l 467 835 l 300 835 m 583 835 l 626 1022 l 794 1022 l 750 835 l 583 835 m 290 -17 q 121 179 121 -17 q 150 354 121 233 l 228 694 l 414 694 l 339 368 q 314 224 314 264 q 326 164 314 183 q 364 144 338 144 q 481 207 411 144 l 503 228 l 610 694 l 796 694 l 636 0 l 458 0 l 467 68 q 383 10 435 36 q 290 -17 331 -17 z "},"ý":{"ha":644,"x_min":142,"x_max":788,"o":"m 175 694 l 357 694 l 338 154 l 358 154 l 600 694 l 788 694 l 326 -292 l 142 -292 l 285 0 l 169 0 l 175 694 m 379 800 l 365 949 l 732 1075 l 746 908 l 379 800 z "},"þ":{"ha":688,"x_min":6,"x_max":747,"o":"m 404 651 q 556 710 489 710 q 672 676 624 710 q 733 592 719 643 q 746 513 746 542 q 744 451 746 485 q 726 354 743 417 q 583 65 669 146 q 344 -17 496 -17 q 246 -10 246 -17 l 181 -289 l 6 -289 l 303 969 l 478 969 l 404 651 m 547 354 q 560 428 560 400 q 557 479 560 456 q 536 521 554 503 q 492 539 518 539 q 383 499 449 539 l 364 486 l 286 157 l 379 149 q 547 354 494 149 z "},"ÿ":{"ha":644,"x_min":142,"x_max":788,"o":"m 275 835 l 318 1022 l 486 1022 l 442 835 l 275 835 m 558 835 l 601 1022 l 769 1022 l 725 835 l 558 835 m 175 694 l 357 694 l 338 154 l 358 154 l 600 694 l 788 694 l 326 -292 l 142 -292 l 285 0 l 169 0 l 175 694 z "},"Ā":{"ha":765,"x_min":18,"x_max":889,"o":"m 400 1119 l 435 1271 l 889 1271 l 854 1119 l 400 1119 m 18 0 l 443 944 l 774 944 l 744 0 l 553 0 l 558 164 l 283 164 l 210 0 l 18 0 m 556 778 l 356 331 l 565 331 l 585 778 l 556 778 z "},"ā":{"ha":733,"x_min":111,"x_max":849,"o":"m 307 -17 q 158 52 206 -17 q 111 236 111 121 q 192 543 111 396 q 303 664 232 617 q 464 711 374 711 q 747 678 560 711 l 811 665 l 707 217 l 669 4 l 485 -3 q 503 106 497 82 q 369 -3 446 29 q 307 -17 338 -17 m 469 553 q 376 499 417 553 q 300 236 300 396 q 315 165 300 188 q 363 142 331 142 q 437 172 396 142 q 506 233 478 203 l 533 265 l 597 533 q 469 553 506 553 m 385 871 l 419 1022 l 849 1022 l 813 871 l 385 871 z "},"Ă":{"ha":765,"x_min":18,"x_max":910,"o":"m 617 1275 q 668 1233 617 1233 q 740 1288 719 1233 l 910 1288 q 814 1138 876 1189 q 642 1088 751 1088 q 490 1134 533 1088 q 446 1250 446 1181 q 449 1288 446 1268 l 618 1288 q 617 1275 617 1281 m 18 0 l 443 944 l 774 944 l 744 0 l 553 0 l 558 164 l 283 164 l 210 0 l 18 0 m 556 778 l 356 331 l 565 331 l 585 778 l 556 778 z "},"ă":{"ha":733,"x_min":111,"x_max":881,"o":"m 307 -17 q 158 52 206 -17 q 111 236 111 121 q 192 543 111 396 q 303 664 232 617 q 464 711 374 711 q 747 678 560 711 l 811 665 l 707 217 l 669 4 l 485 -3 q 503 106 497 82 q 369 -3 446 29 q 307 -17 338 -17 m 469 553 q 376 499 417 553 q 300 236 300 396 q 315 165 300 188 q 363 142 331 142 q 437 172 396 142 q 506 233 478 203 l 533 265 l 597 533 q 469 553 506 553 m 567 1026 q 628 975 567 975 q 713 1036 690 975 l 881 1036 q 578 819 808 819 q 394 986 394 819 q 399 1036 394 1010 l 567 1036 q 567 1026 567 1031 z "},"Ą":{"ha":765,"x_min":18,"x_max":774,"o":"m 744 0 l 733 0 q 672 -58 703 -22 q 642 -113 642 -93 q 660 -133 642 -133 l 711 -129 l 693 -282 q 558 -297 614 -297 q 472 -270 503 -297 q 442 -190 442 -243 q 567 0 442 -101 l 553 0 l 558 164 l 283 164 l 210 0 l 18 0 l 443 944 l 774 944 l 744 7 l 744 0 m 556 778 l 356 331 l 565 331 l 585 778 l 556 778 z "},"ą":{"ha":733,"x_min":111,"x_max":811,"o":"m 610 -282 q 475 -297 531 -297 q 389 -270 419 -297 q 358 -190 358 -243 q 485 1 358 -101 q 492 48 485 3 q 503 106 500 93 q 369 -3 446 29 q 307 -17 338 -17 q 158 52 206 -17 q 111 236 111 121 q 192 543 111 396 q 303 664 232 617 q 464 711 374 711 q 747 678 560 711 l 811 665 l 707 217 l 669 4 l 656 3 q 592 -54 625 -17 q 558 -112 558 -92 q 576 -133 558 -133 l 628 -129 l 610 -282 m 469 553 q 376 499 417 553 q 300 236 300 396 q 315 165 300 188 q 363 142 331 142 q 437 172 396 142 q 506 233 478 203 l 533 265 l 597 533 q 469 553 506 553 z "},"Ć":{"ha":686,"x_min":138,"x_max":900,"o":"m 422 -17 q 138 257 138 -17 q 206 631 138 460 q 297 798 243 725 q 435 916 351 871 q 624 961 519 961 q 828 931 725 961 l 861 919 l 817 778 q 617 794 731 794 q 465 718 531 794 q 367 524 399 642 q 335 271 335 406 q 447 150 335 150 q 640 164 554 150 l 672 168 l 657 19 q 422 -17 528 -17 m 533 1063 l 519 1210 l 886 1336 l 900 1169 l 533 1063 z "},"ć":{"ha":568,"x_min":114,"x_max":739,"o":"m 476 711 q 653 678 560 711 l 683 668 l 636 532 q 468 550 529 550 q 346 463 389 550 q 303 260 303 376 q 408 144 303 144 l 557 156 l 542 18 q 339 -17 440 -17 q 176 47 238 -17 q 114 225 114 111 q 208 574 114 438 q 476 711 301 711 m 372 800 l 358 949 l 725 1075 l 739 908 l 372 800 z "},"Ĉ":{"ha":686,"x_min":138,"x_max":894,"o":"m 422 -17 q 138 257 138 -17 q 206 631 138 460 q 297 798 243 725 q 435 916 351 871 q 624 961 519 961 q 828 931 725 961 l 861 919 l 817 778 q 617 794 731 794 q 465 718 531 794 q 367 524 399 642 q 335 271 335 406 q 447 150 335 150 q 640 164 554 150 l 672 168 l 657 19 q 422 -17 528 -17 m 406 1082 l 650 1293 l 761 1293 l 894 1082 l 725 1082 l 689 1158 l 603 1082 l 406 1082 z "},"ĉ":{"ha":568,"x_min":114,"x_max":733,"o":"m 476 711 q 653 678 560 711 l 683 668 l 636 532 q 468 550 529 550 q 346 463 389 550 q 303 260 303 376 q 408 144 303 144 l 557 156 l 542 18 q 339 -17 440 -17 q 176 47 238 -17 q 114 225 114 111 q 208 574 114 438 q 476 711 301 711 m 269 799 l 503 1042 l 614 1042 l 733 799 l 564 799 l 531 888 l 450 799 l 269 799 z "},"Ċ":{"ha":686,"x_min":138,"x_max":861,"o":"m 422 -17 q 138 257 138 -17 q 206 631 138 460 q 297 798 243 725 q 435 916 351 871 q 624 961 519 961 q 828 931 725 961 l 861 919 l 817 778 q 617 794 731 794 q 465 718 531 794 q 367 524 399 642 q 335 271 335 406 q 447 150 335 150 q 640 164 554 150 l 672 168 l 657 19 q 422 -17 528 -17 m 563 1071 l 607 1263 l 771 1263 l 724 1071 l 563 1071 z "},"ċ":{"ha":568,"x_min":114,"x_max":683,"o":"m 476 711 q 653 678 560 711 l 683 668 l 636 532 q 468 550 529 550 q 346 463 389 550 q 303 260 303 376 q 408 144 303 144 l 557 156 l 542 18 q 339 -17 440 -17 q 176 47 238 -17 q 114 225 114 111 q 208 574 114 438 q 476 711 301 711 m 417 808 l 461 999 l 622 999 l 578 808 l 417 808 z "},"Č":{"ha":686,"x_min":138,"x_max":942,"o":"m 422 -17 q 138 257 138 -17 q 206 631 138 460 q 297 798 243 725 q 435 916 351 871 q 624 961 519 961 q 828 931 725 961 l 861 919 l 817 778 q 617 794 731 794 q 465 718 531 794 q 367 524 399 642 q 335 271 335 406 q 447 150 335 150 q 640 164 554 150 l 672 168 l 657 19 q 422 -17 528 -17 m 942 1288 l 719 1078 l 592 1078 l 463 1288 l 646 1288 l 686 1208 l 760 1288 l 942 1288 z "},"č":{"ha":568,"x_min":114,"x_max":804,"o":"m 572 799 l 454 799 l 340 1042 l 511 1042 l 551 950 l 625 1042 l 804 1042 l 572 799 m 476 711 q 653 678 560 711 l 683 668 l 636 532 q 468 550 529 550 q 346 463 389 550 q 303 260 303 376 q 408 144 303 144 l 557 156 l 542 18 q 339 -17 440 -17 q 176 47 238 -17 q 114 225 114 111 q 208 574 114 438 q 476 711 301 711 z "},"Ď":{"ha":840,"x_min":90,"x_max":917,"o":"m 429 0 l 90 0 l 308 944 l 606 944 q 917 657 917 944 q 842 290 917 454 q 747 141 803 206 q 610 38 692 76 q 429 0 528 0 m 719 655 q 719 689 719 655 q 681 751 719 724 q 567 778 643 778 l 461 778 l 321 167 l 446 167 q 572 218 517 167 q 658 348 628 269 q 704 506 689 426 q 719 655 719 586 m 899 1288 l 676 1078 l 549 1078 l 419 1288 l 603 1288 l 643 1208 l 717 1288 l 899 1288 z "},"ď":{"ha":885,"x_min":111,"x_max":1117,"o":"m 1117 944 l 1033 596 l 863 596 l 947 944 l 1117 944 m 311 -17 q 162 47 213 -17 q 111 229 111 111 q 149 454 111 347 q 269 635 188 561 q 461 710 351 710 q 600 688 508 710 l 628 681 l 696 972 l 882 972 l 657 0 l 476 0 l 489 72 q 408 12 461 40 q 311 -17 356 -17 m 594 532 q 463 551 514 551 q 374 497 413 551 q 318 369 336 442 q 300 231 300 297 q 371 142 300 142 q 433 167 393 142 q 500 217 472 192 l 528 242 l 594 532 z "},"Đ":{"ha":851,"x_min":101,"x_max":928,"o":"m 440 0 l 101 0 l 189 382 l 114 382 l 154 571 l 233 571 l 319 944 l 617 944 q 928 657 928 944 q 853 290 928 454 q 621 39 768 107 q 440 0 539 0 m 669 348 q 685 387 669 348 q 715 506 700 426 q 731 655 731 586 q 692 751 731 724 q 578 778 654 778 l 472 778 l 425 571 l 575 571 l 533 382 l 381 382 l 332 167 l 457 167 q 583 218 528 167 q 669 348 639 269 z "},"đ":{"ha":733,"x_min":111,"x_max":946,"o":"m 311 -17 q 162 47 213 -17 q 111 229 111 111 q 149 454 111 347 q 269 635 188 561 q 461 710 351 710 q 600 688 508 710 l 628 681 l 646 760 l 479 760 l 517 925 l 685 925 l 696 972 l 882 972 l 871 925 l 946 925 l 907 760 l 832 760 l 657 0 l 476 0 l 489 72 q 408 12 461 40 q 311 -17 356 -17 m 594 532 q 463 551 514 551 q 374 497 413 551 q 318 369 336 442 q 300 231 300 297 q 371 142 300 142 q 433 167 393 142 q 500 217 472 192 l 528 242 l 594 532 z "},"Ē":{"ha":690,"x_min":90,"x_max":874,"o":"m 385 1119 l 419 1271 l 874 1271 l 839 1119 l 385 1119 m 90 0 l 307 944 l 861 944 l 822 778 l 461 778 l 410 556 l 696 556 l 657 389 l 372 389 l 321 167 l 683 167 l 646 0 l 90 0 z "},"ē":{"ha":661,"x_min":113,"x_max":767,"o":"m 299 219 q 299 201 299 219 q 327 163 299 183 q 399 142 356 142 q 594 156 494 142 l 631 160 l 610 22 q 354 -17 481 -17 q 170 40 228 -17 q 113 207 113 97 q 135 403 113 317 q 201 558 157 489 q 320 669 244 628 q 493 710 396 710 q 736 503 736 710 q 647 321 736 371 q 351 271 558 271 l 303 271 q 299 219 299 254 m 381 408 q 515 429 476 408 q 553 500 553 450 q 483 560 553 560 q 324 408 360 560 l 381 408 m 303 871 l 338 1022 l 767 1022 l 731 871 l 303 871 z "},"Ĕ":{"ha":690,"x_min":90,"x_max":874,"o":"m 581 1275 q 632 1233 581 1233 q 704 1288 683 1233 l 874 1288 q 778 1138 840 1189 q 606 1088 715 1088 q 453 1134 497 1088 q 410 1250 410 1181 q 413 1288 410 1268 l 582 1288 q 581 1275 581 1281 m 90 0 l 307 944 l 861 944 l 822 778 l 461 778 l 410 556 l 696 556 l 657 389 l 372 389 l 321 167 l 683 167 l 646 0 l 90 0 z "},"ĕ":{"ha":661,"x_min":113,"x_max":821,"o":"m 299 219 q 299 201 299 219 q 327 163 299 183 q 399 142 356 142 q 594 156 494 142 l 631 160 l 610 22 q 354 -17 481 -17 q 170 40 228 -17 q 113 207 113 97 q 135 403 113 317 q 201 558 157 489 q 320 669 244 628 q 493 710 396 710 q 736 503 736 710 q 647 321 736 371 q 351 271 558 271 l 303 271 q 299 219 299 254 m 381 408 q 515 429 476 408 q 553 500 553 450 q 483 560 553 560 q 324 408 360 560 l 381 408 m 507 1026 q 569 975 507 975 q 653 1036 631 975 l 821 1036 q 518 819 749 819 q 335 986 335 819 q 339 1036 335 1010 l 507 1036 q 507 1026 507 1031 z "},"Ė":{"ha":690,"x_min":90,"x_max":861,"o":"m 511 1071 l 556 1263 l 719 1263 l 672 1071 l 511 1071 m 90 0 l 307 944 l 861 944 l 822 778 l 461 778 l 410 556 l 696 556 l 657 389 l 372 389 l 321 167 l 683 167 l 646 0 l 90 0 z "},"ė":{"ha":661,"x_min":113,"x_max":736,"o":"m 299 219 q 299 201 299 219 q 327 163 299 183 q 399 142 356 142 q 594 156 494 142 l 631 160 l 610 22 q 354 -17 481 -17 q 170 40 228 -17 q 113 207 113 97 q 135 403 113 317 q 201 558 157 489 q 320 669 244 628 q 493 710 396 710 q 736 503 736 710 q 647 321 736 371 q 351 271 558 271 l 303 271 q 299 219 299 254 m 381 408 q 515 429 476 408 q 553 500 553 450 q 483 560 553 560 q 324 408 360 560 l 381 408 m 424 808 l 468 999 l 629 999 l 585 808 l 424 808 z "},"Ę":{"ha":690,"x_min":90,"x_max":861,"o":"m 629 0 q 568 -58 599 -22 q 538 -113 538 -93 q 556 -133 538 -133 l 607 -129 l 589 -282 q 454 -297 510 -297 q 368 -270 399 -297 q 338 -190 338 -243 q 463 0 338 -101 l 90 0 l 307 944 l 861 944 l 822 778 l 461 778 l 410 556 l 696 556 l 657 389 l 372 389 l 321 167 l 683 167 l 646 0 l 629 0 z "},"ę":{"ha":661,"x_min":113,"x_max":736,"o":"m 558 -254 q 424 -269 479 -269 q 338 -242 368 -269 q 307 -157 307 -215 q 385 -15 307 -99 q 347 -17 372 -17 q 170 40 228 -17 q 113 207 113 97 q 135 403 113 317 q 201 558 157 489 q 320 669 244 628 q 493 710 396 710 q 736 503 736 710 q 647 321 736 371 q 351 271 558 271 l 303 271 q 299 219 299 254 q 327 163 299 183 q 399 142 356 142 q 594 156 494 142 l 631 160 l 610 22 q 582 14 597 18 q 507 -86 507 -49 q 525 -106 507 -106 l 576 -101 l 558 -254 m 381 408 q 515 429 476 408 q 553 500 553 450 q 483 560 553 560 q 324 408 360 560 l 381 408 z "},"Ě":{"ha":690,"x_min":90,"x_max":888,"o":"m 888 1313 l 665 1103 l 538 1103 l 408 1313 l 592 1313 l 632 1233 l 706 1313 l 888 1313 m 90 0 l 307 944 l 861 944 l 822 778 l 461 778 l 410 556 l 696 556 l 657 389 l 372 389 l 321 167 l 683 167 l 646 0 l 90 0 z "},"ě":{"ha":661,"x_min":113,"x_max":799,"o":"m 299 219 q 299 201 299 219 q 327 163 299 183 q 399 142 356 142 q 594 156 494 142 l 631 160 l 610 22 q 354 -17 481 -17 q 170 40 228 -17 q 113 207 113 97 q 135 403 113 317 q 201 558 157 489 q 320 669 244 628 q 493 710 396 710 q 736 503 736 710 q 647 321 736 371 q 351 271 558 271 l 303 271 q 299 219 299 254 m 381 408 q 515 429 476 408 q 553 500 553 450 q 483 560 553 560 q 324 408 360 560 l 381 408 m 567 799 l 449 799 l 335 1042 l 506 1042 l 546 950 l 619 1042 l 799 1042 l 567 799 z "},"Ĝ":{"ha":789,"x_min":142,"x_max":935,"o":"m 417 1049 l 650 1292 l 789 1292 l 908 1049 l 725 1049 l 692 1138 l 611 1049 l 417 1049 m 454 -17 q 142 281 142 -17 q 219 672 142 506 q 461 925 304 856 q 629 961 544 961 q 786 947 714 961 q 897 919 858 933 l 935 906 l 890 767 q 631 794 753 794 q 497 745 556 794 q 406 617 438 696 q 339 279 339 457 q 478 150 339 150 l 565 157 l 614 367 l 525 367 l 563 525 l 842 525 l 724 19 q 454 -17 629 -17 z "},"ĝ":{"ha":672,"x_min":13,"x_max":801,"o":"m 314 -319 q 13 -129 13 -319 q 59 -22 13 -64 q 182 58 106 21 q 154 123 154 86 q 175 193 154 160 q 217 246 196 226 l 238 265 q 143 439 143 321 q 222 634 143 557 q 431 711 301 711 q 572 692 490 711 l 599 686 l 801 694 l 767 544 l 686 544 q 692 474 692 514 q 609 292 692 367 q 401 218 526 218 l 342 225 q 321 178 321 197 q 347 150 321 158 q 451 131 374 142 q 649 -44 649 101 q 559 -244 649 -168 q 314 -319 469 -319 m 261 8 q 208 -34 233 -7 q 182 -90 182 -61 q 213 -142 182 -119 q 310 -164 243 -164 q 474 -67 474 -164 q 460 -37 474 -49 q 431 -22 447 -26 q 342 -6 414 -18 q 261 8 271 6 m 411 369 q 490 402 460 369 q 521 482 521 435 q 424 560 521 560 q 344 528 375 560 q 314 447 314 496 q 411 369 314 369 m 251 799 l 485 1042 l 596 1042 l 715 799 l 546 799 l 513 888 l 432 799 l 251 799 z "},"Ğ":{"ha":789,"x_min":142,"x_max":979,"o":"m 651 1286 l 651 1268 q 715 1225 656 1225 q 797 1286 775 1225 l 979 1286 q 865 1118 944 1181 q 676 1056 785 1056 q 519 1103 568 1056 q 467 1239 467 1153 q 469 1286 467 1260 l 651 1286 m 454 -17 q 142 281 142 -17 q 219 672 142 506 q 461 925 304 856 q 629 961 544 961 q 786 947 714 961 q 897 919 858 933 l 935 906 l 890 767 q 631 794 753 794 q 497 745 556 794 q 406 617 438 696 q 339 279 339 457 q 478 150 339 150 l 565 157 l 614 367 l 525 367 l 563 525 l 842 525 l 724 19 q 454 -17 629 -17 z "},"ğ":{"ha":672,"x_min":13,"x_max":801,"o":"m 314 -319 q 13 -129 13 -319 q 59 -22 13 -64 q 182 58 106 21 q 154 123 154 86 q 175 193 154 160 q 217 246 196 226 l 238 265 q 143 439 143 321 q 222 634 143 557 q 431 711 301 711 q 572 692 490 711 l 599 686 l 801 694 l 767 544 l 686 544 q 692 474 692 514 q 609 292 692 367 q 401 218 526 218 l 342 225 q 321 178 321 197 q 347 150 321 158 q 451 131 374 142 q 649 -44 649 101 q 559 -244 649 -168 q 314 -319 469 -319 m 261 8 q 208 -34 233 -7 q 182 -90 182 -61 q 213 -142 182 -119 q 310 -164 243 -164 q 474 -67 474 -164 q 460 -37 474 -49 q 431 -22 447 -26 q 342 -6 414 -18 q 261 8 271 6 m 411 369 q 490 402 460 369 q 521 482 521 435 q 424 560 521 560 q 344 528 375 560 q 314 447 314 496 q 411 369 314 369 m 478 1026 q 540 975 478 975 q 624 1036 601 975 l 792 1036 q 489 819 719 819 q 306 986 306 819 q 310 1036 306 1010 l 478 1036 q 478 1026 478 1031 z "},"Ġ":{"ha":789,"x_min":142,"x_max":935,"o":"m 582 1017 l 626 1207 l 801 1207 l 757 1017 l 582 1017 m 454 -17 q 142 281 142 -17 q 219 672 142 506 q 461 925 304 856 q 629 961 544 961 q 786 947 714 961 q 897 919 858 933 l 935 906 l 890 767 q 631 794 753 794 q 497 745 556 794 q 406 617 438 696 q 339 279 339 457 q 478 150 339 150 l 565 157 l 614 367 l 525 367 l 563 525 l 842 525 l 724 19 q 454 -17 629 -17 z "},"ġ":{"ha":672,"x_min":13,"x_max":801,"o":"m 314 -319 q 13 -129 13 -319 q 59 -22 13 -64 q 182 58 106 21 q 154 123 154 86 q 175 193 154 160 q 217 246 196 226 l 238 265 q 143 439 143 321 q 222 634 143 557 q 431 711 301 711 q 572 692 490 711 l 599 686 l 801 694 l 767 544 l 686 544 q 692 474 692 514 q 609 292 692 367 q 401 218 526 218 l 342 225 q 321 178 321 197 q 347 150 321 158 q 451 131 374 142 q 649 -44 649 101 q 559 -244 649 -168 q 314 -319 469 -319 m 261 8 q 208 -34 233 -7 q 182 -90 182 -61 q 213 -142 182 -119 q 310 -164 243 -164 q 474 -67 474 -164 q 460 -37 474 -49 q 431 -22 447 -26 q 342 -6 414 -18 q 261 8 271 6 m 411 369 q 490 402 460 369 q 521 482 521 435 q 424 560 521 560 q 344 528 375 560 q 314 447 314 496 q 411 369 314 369 m 408 808 l 453 999 l 614 999 l 569 808 l 408 808 z "},"Ģ":{"ha":789,"x_min":142,"x_max":935,"o":"m 454 -17 q 142 281 142 -17 q 219 672 142 506 q 461 925 304 856 q 629 961 544 961 q 786 947 714 961 q 897 919 858 933 l 935 906 l 890 767 q 631 794 753 794 q 497 745 556 794 q 406 617 438 696 q 339 279 339 457 q 478 150 339 150 l 565 157 l 614 367 l 525 367 l 563 525 l 842 525 l 724 19 q 454 -17 629 -17 m 324 -100 l 494 -100 l 346 -429 l 189 -429 l 324 -100 z "},"ģ":{"ha":672,"x_min":13,"x_max":801,"o":"m 546 1131 l 704 1131 l 568 803 l 397 803 l 546 1131 m 314 -319 q 13 -129 13 -319 q 59 -22 13 -64 q 182 58 106 21 q 154 123 154 86 q 175 193 154 160 q 217 246 196 226 l 238 265 q 143 439 143 321 q 222 634 143 557 q 431 711 301 711 q 572 692 490 711 l 599 686 l 801 694 l 767 544 l 686 544 q 692 474 692 514 q 609 292 692 367 q 401 218 526 218 l 342 225 q 321 178 321 197 q 347 150 321 158 q 451 131 374 142 q 649 -44 649 101 q 559 -244 649 -168 q 314 -319 469 -319 m 261 8 q 208 -34 233 -7 q 182 -90 182 -61 q 213 -142 182 -119 q 310 -164 243 -164 q 474 -67 474 -164 q 460 -37 474 -49 q 431 -22 447 -26 q 342 -6 414 -18 q 261 8 271 6 m 411 369 q 490 402 460 369 q 521 482 521 435 q 424 560 521 560 q 344 528 375 560 q 314 447 314 496 q 411 369 314 369 z "},"Ĥ":{"ha":861,"x_min":90,"x_max":989,"o":"m 579 0 l 671 400 l 374 400 l 282 0 l 90 0 l 308 944 l 500 944 l 413 567 l 710 567 l 797 944 l 989 944 l 771 0 l 579 0 m 428 1082 l 672 1293 l 783 1293 l 917 1082 l 747 1082 l 711 1158 l 625 1082 l 428 1082 z "},"ĥ":{"ha":713,"x_min":76,"x_max":868,"o":"m 582 711 q 751 515 751 711 q 722 340 751 465 l 644 0 l 458 0 l 533 326 q 558 472 558 431 q 548 531 558 513 q 511 550 538 550 q 393 488 464 550 l 369 467 l 263 0 l 76 0 l 300 972 l 486 972 l 408 629 q 490 685 439 660 q 582 711 542 711 m 379 1040 l 624 1251 l 735 1251 l 868 1040 l 699 1040 l 663 1117 l 576 1040 l 379 1040 z "},"Ħ":{"ha":872,"x_min":96,"x_max":1057,"o":"m 160 668 l 160 672 l 199 833 l 288 833 l 314 944 l 497 944 l 471 833 l 785 833 l 811 944 l 994 944 l 968 833 l 1057 833 l 1015 668 l 931 668 l 776 0 l 593 0 l 682 386 l 368 386 l 279 0 l 96 0 l 250 668 l 160 668 m 410 565 l 724 565 l 747 668 l 433 668 l 410 565 z "},"ħ":{"ha":713,"x_min":76,"x_max":751,"o":"m 582 711 q 751 515 751 711 q 722 340 751 465 l 644 0 l 458 0 l 533 326 q 558 472 558 431 q 548 531 558 513 q 511 550 538 550 q 393 488 464 550 l 369 467 l 263 0 l 76 0 l 246 736 l 174 736 l 211 897 l 282 897 l 300 972 l 486 972 l 469 897 l 640 897 l 601 736 l 432 736 l 408 629 q 490 685 439 660 q 582 711 542 711 z "},"Ĩ":{"ha":372,"x_min":90,"x_max":701,"o":"m 621 1095 q 597 1082 621 1095 q 540 1068 574 1068 q 432 1098 506 1068 q 339 1128 358 1128 q 239 1086 307 1128 l 218 1074 l 213 1203 q 299 1265 254 1239 q 383 1292 344 1292 q 494 1263 421 1292 q 581 1233 567 1233 q 676 1272 610 1233 l 699 1286 l 701 1156 q 621 1095 668 1122 m 90 0 l 308 944 l 500 944 l 282 0 l 90 0 z "},"ĩ":{"ha":338,"x_min":76,"x_max":594,"o":"m 76 0 l 236 694 l 422 694 l 263 0 l 76 0 m 567 883 q 507 844 550 869 q 431 819 464 819 q 334 850 397 819 q 253 881 271 881 q 156 839 219 881 l 133 825 l 129 953 q 157 978 140 963 q 217 1018 174 993 q 296 1043 260 1043 q 394 1013 332 1043 q 471 983 457 983 q 567 1025 497 983 l 589 1038 l 594 908 l 567 883 z "},"Ī":{"ha":372,"x_min":90,"x_max":697,"o":"m 208 1135 l 243 1286 l 697 1286 l 663 1135 l 208 1135 m 90 0 l 308 944 l 500 944 l 282 0 l 90 0 z "},"ī":{"ha":338,"x_min":76,"x_max":604,"o":"m 76 0 l 236 694 l 422 694 l 263 0 l 76 0 m 140 871 l 175 1022 l 604 1022 l 568 871 l 140 871 z "},"Ĭ":{"ha":372,"x_min":90,"x_max":714,"o":"m 421 1275 q 472 1233 421 1233 q 544 1288 524 1233 l 714 1288 q 618 1138 681 1189 q 447 1088 556 1088 q 294 1134 338 1088 q 250 1250 250 1181 q 253 1288 250 1268 l 422 1288 q 421 1275 421 1281 m 90 0 l 308 944 l 500 944 l 282 0 l 90 0 z "},"ĭ":{"ha":338,"x_min":76,"x_max":638,"o":"m 76 0 l 236 694 l 422 694 l 263 0 l 76 0 m 324 1026 q 385 975 324 975 q 469 1036 447 975 l 638 1036 q 335 819 565 819 q 151 986 151 819 q 156 1036 151 1010 l 324 1036 q 324 1026 324 1031 z "},"Į":{"ha":372,"x_min":-26,"x_max":500,"o":"m 282 0 q 210 -53 246 -15 q 174 -112 174 -90 q 192 -133 174 -133 l 243 -129 l 225 -282 q 90 -297 146 -297 q 4 -270 35 -297 q -26 -190 -26 -243 q 99 0 -26 -101 l 90 0 l 308 944 l 500 944 l 282 0 z "},"į":{"ha":338,"x_min":-51,"x_max":483,"o":"m 200 -282 q 65 -297 121 -297 q -21 -270 10 -297 q -51 -192 -51 -243 q -12 -89 -51 -142 q 76 3 26 -36 l 236 694 l 422 694 l 263 0 q 186 -55 224 -19 q 149 -112 149 -90 q 167 -133 149 -133 l 218 -129 l 200 -282 m 251 767 l 296 957 l 483 957 l 440 767 l 251 767 z "},"İ":{"ha":372,"x_min":90,"x_max":557,"o":"m 349 1071 l 393 1263 l 557 1263 l 510 1071 l 349 1071 m 90 0 l 308 944 l 500 944 l 282 0 l 90 0 z "},"ı":{"ha":339,"x_min":76,"x_max":422,"o":"m 76 0 l 236 694 l 422 694 l 263 0 l 76 0 z "},"Ĵ":{"ha":393,"x_min":8,"x_max":689,"o":"m 525 944 l 350 188 q 275 -21 318 47 q 215 -69 253 -56 q 8 -96 144 -96 l 40 71 q 119 92 99 74 q 158 188 140 110 l 333 944 l 525 944 m 200 1082 l 444 1293 l 556 1293 l 689 1082 l 519 1082 l 483 1158 l 397 1082 l 200 1082 z "},"ĵ":{"ha":338,"x_min":-97,"x_max":575,"o":"m 76 0 l 236 694 l 422 694 l 263 0 q 242 -83 250 -56 q 218 -144 235 -111 q 186 -192 201 -176 q 136 -231 171 -208 q -39 -319 89 -264 l -97 -171 q 35 -90 10 -115 q 76 0 61 -64 m 111 799 l 344 1042 l 456 1042 l 575 799 l 406 799 l 372 888 l 292 799 l 111 799 z "},"Ķ":{"ha":750,"x_min":90,"x_max":949,"o":"m 299 -100 l 469 -100 l 321 -429 l 164 -429 l 299 -100 m 533 0 l 472 379 l 367 369 l 282 0 l 90 0 l 308 944 l 500 944 l 406 536 l 494 547 l 739 944 l 949 944 l 647 471 l 735 0 l 533 0 z "},"ķ":{"ha":649,"x_min":76,"x_max":789,"o":"m 103 -429 l 238 -100 l 408 -100 l 260 -429 l 103 -429 m 263 0 l 76 0 l 300 972 l 486 972 l 361 432 l 408 442 l 585 693 l 789 693 l 547 360 l 639 0 l 449 0 l 382 288 l 326 279 l 263 0 z "},"Ĺ":{"ha":586,"x_min":90,"x_max":783,"o":"m 417 1063 l 403 1210 l 769 1336 l 783 1169 l 417 1063 m 582 0 l 90 0 l 308 944 l 500 944 l 321 167 l 619 167 l 582 0 z "},"ĺ":{"ha":339,"x_min":76,"x_max":693,"o":"m 76 0 l 300 972 l 486 972 l 263 0 l 76 0 m 326 1063 l 313 1210 l 679 1336 l 693 1169 l 326 1063 z "},"Ļ":{"ha":586,"x_min":90,"x_max":619,"o":"m 229 -100 l 400 -100 l 251 -429 l 94 -429 l 229 -100 m 582 0 l 90 0 l 308 944 l 500 944 l 321 167 l 619 167 l 582 0 z "},"ļ":{"ha":339,"x_min":-71,"x_max":486,"o":"m 64 -100 l 235 -100 l 86 -429 l -71 -429 l 64 -100 m 76 0 l 300 972 l 486 972 l 263 0 l 76 0 z "},"Ľ":{"ha":644,"x_min":90,"x_max":819,"o":"m 819 944 l 736 596 l 565 596 l 650 944 l 819 944 m 582 0 l 90 0 l 308 944 l 500 944 l 321 167 l 619 167 l 582 0 z "},"ľ":{"ha":490,"x_min":76,"x_max":722,"o":"m 722 944 l 639 596 l 468 596 l 553 944 l 722 944 m 76 0 l 300 972 l 486 972 l 263 0 l 76 0 z "},"Ł":{"ha":588,"x_min":64,"x_max":622,"o":"m 585 0 l 93 0 l 160 289 l 121 265 l 64 394 l 204 481 l 311 944 l 503 944 l 428 619 l 561 703 l 618 575 l 383 429 l 324 167 l 622 167 l 585 0 z "},"ł":{"ha":406,"x_min":68,"x_max":551,"o":"m 107 0 l 176 306 l 125 274 l 68 403 l 221 499 l 331 972 l 517 972 l 439 633 l 494 668 l 551 540 l 394 442 l 293 0 l 107 0 z "},"Ń":{"ha":904,"x_min":90,"x_max":1032,"o":"m 540 1063 l 526 1210 l 893 1336 l 907 1169 l 540 1063 m 90 0 l 308 944 l 613 944 l 663 204 l 679 204 l 847 944 l 1032 944 l 814 0 l 525 0 l 464 754 l 447 754 l 271 0 l 90 0 z "},"ń":{"ha":713,"x_min":76,"x_max":767,"o":"m 369 467 l 263 0 l 76 0 l 236 694 l 414 694 l 406 626 l 429 647 q 497 690 453 669 q 582 711 542 711 q 751 515 751 711 q 722 340 751 465 l 644 0 l 458 0 l 533 326 q 558 472 558 431 q 548 531 558 513 q 497 550 538 550 q 369 467 457 550 m 400 800 l 386 949 l 753 1075 l 767 908 l 400 800 z "},"Ņ":{"ha":904,"x_min":90,"x_max":1032,"o":"m 389 -100 l 560 -100 l 411 -429 l 254 -429 l 389 -100 m 90 0 l 308 944 l 613 944 l 663 204 l 679 204 l 847 944 l 1032 944 l 814 0 l 525 0 l 464 754 l 447 754 l 271 0 l 90 0 z "},"ņ":{"ha":713,"x_min":76,"x_max":751,"o":"m 582 711 q 751 515 751 711 q 722 340 751 465 l 644 0 l 458 0 l 533 326 q 558 472 558 431 q 548 531 558 513 q 510 550 538 550 q 392 488 461 550 l 369 467 l 263 0 l 76 0 l 236 694 l 414 694 l 406 626 q 490 685 438 658 q 582 711 542 711 m 133 -429 l 268 -100 l 439 -100 l 290 -429 l 133 -429 z "},"Ň":{"ha":904,"x_min":90,"x_max":1032,"o":"m 958 1286 l 736 1076 l 608 1076 l 479 1286 l 663 1286 l 703 1207 l 776 1286 l 958 1286 m 90 0 l 308 944 l 613 944 l 663 204 l 679 204 l 847 944 l 1032 944 l 814 0 l 525 0 l 464 754 l 447 754 l 271 0 l 90 0 z "},"ň":{"ha":713,"x_min":76,"x_max":828,"o":"m 582 711 q 751 515 751 711 q 722 340 751 465 l 644 0 l 458 0 l 533 326 q 558 472 558 431 q 548 531 558 513 q 510 550 538 550 q 392 488 461 550 l 369 467 l 263 0 l 76 0 l 236 694 l 414 694 l 406 626 q 490 685 438 658 q 582 711 542 711 m 596 799 l 478 799 l 364 1042 l 535 1042 l 575 950 l 649 1042 l 828 1042 l 596 799 z "},"Ŋ":{"ha":904,"x_min":90,"x_max":1032,"o":"m 988 749 l 813 -8 q 770 -160 789 -110 q 713 -244 751 -211 q 624 -284 674 -276 q 479 -292 575 -292 l 511 -125 q 590 -104 569 -122 q 629 -8 611 -86 l 631 0 l 525 0 l 464 754 l 447 754 l 271 0 l 90 0 l 308 944 l 613 944 l 663 204 l 678 204 l 847 944 l 1032 944 l 986 749 l 988 749 z "},"ŋ":{"ha":697,"x_min":72,"x_max":738,"o":"m 553 461 q 493 536 553 536 q 383 490 454 536 l 360 475 l 249 0 l 72 0 l 236 693 l 413 693 l 396 628 q 571 710 503 710 q 736 529 736 710 q 714 363 736 460 l 629 10 q 533 -202 596 -131 q 314 -342 469 -274 l 269 -183 q 406 -99 375 -131 q 453 3 436 -68 l 539 363 q 553 461 553 419 z "},"Ō":{"ha":854,"x_min":140,"x_max":929,"o":"m 338 312 q 338 264 338 312 q 367 183 338 215 q 469 150 397 150 q 588 197 540 150 q 692 394 653 263 q 732 653 732 526 q 703 762 732 729 q 601 794 674 794 q 488 753 529 794 q 378 547 418 685 q 338 312 338 408 m 929 672 q 872 317 929 482 q 706 68 815 153 q 447 -17 597 -17 q 140 272 140 -17 q 196 615 140 454 q 358 869 251 776 q 622 961 465 961 q 929 672 929 961 m 440 1119 l 475 1271 l 929 1271 l 894 1119 l 440 1119 z "},"ō":{"ha":689,"x_min":111,"x_max":775,"o":"m 463 710 q 736 447 736 710 q 699 232 736 335 q 578 56 661 129 q 385 -17 496 -17 q 111 246 111 -17 q 151 461 111 357 q 274 638 192 565 q 463 710 357 710 m 385 142 q 506 237 460 142 q 551 450 551 332 q 463 551 551 551 q 342 456 388 551 q 296 243 296 361 q 385 142 296 142 m 311 871 l 346 1022 l 775 1022 l 739 871 l 311 871 z "},"Ŏ":{"ha":854,"x_min":140,"x_max":938,"o":"m 644 1275 q 696 1233 644 1233 q 768 1288 747 1233 l 938 1288 q 842 1138 904 1189 q 670 1088 779 1088 q 517 1134 561 1088 q 474 1250 474 1181 q 476 1288 474 1268 l 646 1288 q 644 1275 644 1281 m 338 312 q 338 264 338 312 q 367 183 338 215 q 469 150 397 150 q 588 197 540 150 q 692 394 653 263 q 732 653 732 526 q 703 762 732 729 q 601 794 674 794 q 488 753 529 794 q 378 547 418 685 q 338 312 338 408 m 929 672 q 872 317 929 482 q 706 68 815 153 q 447 -17 597 -17 q 140 272 140 -17 q 196 615 140 454 q 358 869 251 776 q 622 961 465 961 q 929 672 929 961 z "},"ŏ":{"ha":689,"x_min":111,"x_max":793,"o":"m 463 710 q 736 447 736 710 q 699 232 736 335 q 578 56 661 129 q 385 -17 496 -17 q 111 246 111 -17 q 151 461 111 357 q 274 638 192 565 q 463 710 357 710 m 385 142 q 506 237 460 142 q 551 450 551 332 q 463 551 551 551 q 342 456 388 551 q 296 243 296 361 q 385 142 296 142 m 479 1026 q 541 975 479 975 q 625 1036 603 975 l 793 1036 q 490 819 721 819 q 307 986 307 819 q 311 1036 307 1010 l 479 1036 q 479 1026 479 1031 z "},"Ő":{"ha":854,"x_min":140,"x_max":1033,"o":"m 865 1028 l 728 1083 l 882 1358 l 1033 1296 l 865 1028 m 582 1029 l 443 1083 l 599 1360 l 750 1297 l 582 1029 m 338 312 q 338 264 338 312 q 367 183 338 215 q 469 150 397 150 q 588 197 540 150 q 692 394 653 263 q 732 653 732 526 q 703 762 732 729 q 601 794 674 794 q 488 753 529 794 q 378 547 418 685 q 338 312 338 408 m 929 672 q 872 317 929 482 q 706 68 815 153 q 447 -17 597 -17 q 140 272 140 -17 q 196 615 140 454 q 358 869 251 776 q 622 961 465 961 q 929 672 929 961 z "},"ő":{"ha":689,"x_min":111,"x_max":878,"o":"m 463 710 q 736 447 736 710 q 699 232 736 335 q 578 56 661 129 q 385 -17 496 -17 q 111 246 111 -17 q 151 461 111 357 q 274 638 192 565 q 463 710 357 710 m 385 142 q 506 237 460 142 q 551 450 551 332 q 463 551 551 551 q 342 456 388 551 q 296 243 296 361 q 385 142 296 142 m 650 782 l 538 872 l 754 1136 l 878 1043 l 650 782 m 381 782 l 269 872 l 485 1135 l 608 1043 l 381 782 z "},"Œ":{"ha":1154,"x_min":131,"x_max":1332,"o":"m 388 -17 q 131 246 131 -17 q 163 479 131 346 q 337 856 224 736 q 621 975 450 975 q 771 958 679 975 l 1332 958 l 1290 776 l 907 776 l 853 558 l 1158 558 l 1118 385 l 814 388 l 765 182 l 1147 182 l 1106 0 l 549 0 q 388 -17 446 -17 m 456 167 q 585 175 493 167 l 731 783 q 601 792 660 792 q 449 722 507 792 q 350 479 390 651 q 322 297 322 364 q 353 198 322 229 q 456 167 385 167 z "},"œ":{"ha":1054,"x_min":104,"x_max":1122,"o":"m 688 229 q 789 151 688 151 q 990 161 854 151 l 1029 164 l 997 22 q 735 -17 871 -17 q 549 51 600 -17 q 332 -17 457 -17 q 111 146 136 -17 q 106 228 106 179 q 124 353 106 278 q 169 487 143 428 q 238 600 194 546 q 503 710 326 710 q 692 635 632 710 q 890 710 779 710 q 1119 542 1101 710 q 1122 482 1122 519 q 1106 394 1122 444 l 1065 267 l 693 269 q 688 229 688 247 m 285 239 q 369 149 285 149 q 500 247 458 149 q 551 457 551 365 q 531 523 551 501 q 464 544 511 544 q 360 493 397 544 q 304 362 324 442 q 285 239 285 282 m 936 408 q 947 471 947 453 q 946 497 947 489 q 872 540 938 540 q 774 508 807 540 q 725 411 740 476 l 936 408 z "},"Ŕ":{"ha":776,"x_min":90,"x_max":872,"o":"m 872 682 q 872 614 872 682 q 813 454 872 546 q 661 326 753 363 l 738 0 l 546 0 l 483 300 l 351 300 l 282 0 l 90 0 l 308 944 l 581 944 q 801 881 731 944 q 872 682 872 818 m 675 656 q 675 692 675 656 q 651 754 675 728 q 569 781 628 781 l 463 781 l 389 464 l 513 464 q 631 524 588 464 q 675 656 675 583 m 460 1063 l 446 1210 l 813 1336 l 826 1169 l 460 1063 z "},"ŕ":{"ha":464,"x_min":76,"x_max":626,"o":"m 76 0 l 236 694 l 421 694 l 396 594 q 503 669 438 632 q 614 711 568 706 l 560 517 q 397 453 493 496 l 364 438 l 263 0 l 76 0 m 260 800 l 246 949 l 613 1075 l 626 908 l 260 800 z "},"Ŗ":{"ha":776,"x_min":90,"x_max":872,"o":"m 183 -429 l 318 -100 l 489 -100 l 340 -429 l 183 -429 m 581 944 q 801 881 731 944 q 872 682 872 818 q 813 454 872 546 q 661 326 753 363 l 738 0 l 546 0 l 483 300 l 351 300 l 282 0 l 90 0 l 308 944 l 581 944 m 513 464 q 631 524 588 464 q 675 656 675 583 q 651 754 675 728 q 569 781 628 781 l 463 781 l 389 464 l 513 464 z "},"ŗ":{"ha":464,"x_min":-61,"x_max":614,"o":"m 76 0 l 236 694 l 421 694 l 396 594 q 503 669 438 632 q 614 711 568 706 l 560 517 q 397 453 493 496 l 364 438 l 263 0 l 76 0 m 74 -100 l 244 -100 l 96 -429 l -61 -429 l 74 -100 z "},"Ř":{"ha":776,"x_min":90,"x_max":872,"o":"m 871 1288 l 649 1078 l 521 1078 l 392 1288 l 575 1288 l 615 1208 l 689 1288 l 871 1288 m 872 682 q 872 614 872 682 q 813 454 872 546 q 661 326 753 363 l 738 0 l 546 0 l 483 300 l 351 300 l 282 0 l 90 0 l 308 944 l 581 944 q 801 881 731 944 q 872 682 872 818 m 675 656 q 675 692 675 656 q 651 754 675 728 q 569 781 628 781 l 463 781 l 389 464 l 513 464 q 631 524 588 464 q 675 656 675 583 z "},"ř":{"ha":464,"x_min":76,"x_max":699,"o":"m 76 0 l 236 694 l 421 694 l 396 594 q 503 669 438 632 q 614 711 568 706 l 560 517 q 397 453 493 496 l 364 438 l 263 0 l 76 0 m 467 799 l 349 799 l 235 1042 l 406 1042 l 446 950 l 519 1042 l 699 1042 l 467 799 z "},"Ś":{"ha":688,"x_min":69,"x_max":838,"o":"m 529 797 q 433 763 468 797 q 397 682 397 729 q 419 613 397 635 q 542 547 442 592 q 678 453 642 503 q 715 310 715 404 q 619 68 715 153 q 358 -17 522 -17 q 221 -3 293 -17 q 108 25 149 11 l 69 40 l 101 178 q 348 150 258 150 q 479 181 438 150 q 521 288 521 213 q 497 349 521 328 q 378 414 472 371 q 243 508 283 457 q 203 651 203 560 q 290 874 203 786 q 524 961 378 961 q 663 948 590 961 q 775 922 736 935 l 814 908 l 779 772 q 529 797 626 797 m 471 1063 l 457 1210 l 824 1336 l 838 1169 l 471 1063 z "},"ś":{"ha":600,"x_min":64,"x_max":722,"o":"m 419 551 q 356 532 378 551 q 333 487 333 513 q 353 449 333 461 q 453 411 372 436 q 576 353 535 386 q 617 247 617 321 q 531 50 617 117 q 304 -17 446 -17 q 184 -5 244 -17 q 94 19 124 7 l 64 31 l 99 167 q 329 142 232 142 q 426 210 426 142 q 407 238 426 228 q 340 263 388 249 q 194 328 242 290 q 147 435 147 365 q 232 637 147 564 q 436 710 317 710 q 564 699 501 710 q 656 678 626 689 l 686 667 l 653 529 q 419 551 510 551 m 356 800 l 342 949 l 708 1075 l 722 908 l 356 800 z "},"Ŝ":{"ha":688,"x_min":69,"x_max":828,"o":"m 529 797 q 433 763 468 797 q 397 682 397 729 q 419 613 397 635 q 542 547 442 592 q 678 453 642 503 q 715 310 715 404 q 619 68 715 153 q 358 -17 522 -17 q 221 -3 293 -17 q 108 25 149 11 l 69 40 l 101 178 q 348 150 258 150 q 479 181 438 150 q 521 288 521 213 q 497 349 521 328 q 378 414 472 371 q 243 508 283 457 q 203 651 203 560 q 290 874 203 786 q 524 961 378 961 q 663 948 590 961 q 775 922 736 935 l 814 908 l 779 772 q 529 797 626 797 m 339 1082 l 583 1293 l 694 1293 l 828 1082 l 658 1082 l 622 1158 l 536 1082 l 339 1082 z "},"ŝ":{"ha":600,"x_min":64,"x_max":711,"o":"m 419 551 q 356 532 378 551 q 333 487 333 513 q 353 449 333 461 q 453 411 372 436 q 576 353 535 386 q 617 247 617 321 q 531 50 617 117 q 304 -17 446 -17 q 184 -5 244 -17 q 94 19 124 7 l 64 31 l 99 167 q 329 142 232 142 q 426 210 426 142 q 407 238 426 228 q 340 263 388 249 q 194 328 242 290 q 147 435 147 365 q 232 637 147 564 q 436 710 317 710 q 564 699 501 710 q 656 678 626 689 l 686 667 l 653 529 q 419 551 510 551 m 247 799 l 481 1042 l 592 1042 l 711 799 l 542 799 l 508 888 l 428 799 l 247 799 z "},"Ş":{"ha":688,"x_min":69,"x_max":814,"o":"m 369 -46 q 499 -131 499 -46 q 493 -172 499 -149 q 314 -318 458 -318 q 214 -307 258 -318 l 197 -303 l 225 -190 q 289 -192 267 -192 q 347 -158 339 -192 q 341 -136 351 -142 q 304 -131 331 -131 l 274 -131 l 299 -14 q 100 29 185 -3 l 69 40 l 101 178 q 348 150 258 150 q 479 181 438 150 q 521 288 521 213 q 497 349 521 328 q 378 414 472 371 q 243 508 283 457 q 203 651 203 560 q 290 874 203 786 q 524 961 378 961 q 663 948 590 961 q 775 922 736 935 l 814 908 l 779 772 q 529 797 626 797 q 433 763 468 797 q 397 682 397 729 q 419 613 397 635 q 542 547 442 592 q 678 453 642 503 q 715 310 715 404 q 622 71 715 156 q 369 -17 529 -14 l 361 -46 l 369 -46 z "},"ş":{"ha":603,"x_min":65,"x_max":688,"o":"m 315 -46 q 444 -131 444 -46 q 439 -172 444 -149 q 260 -318 404 -318 q 160 -307 204 -318 l 143 -303 l 171 -190 q 235 -192 213 -192 q 293 -158 285 -192 q 287 -136 297 -142 q 250 -131 276 -131 l 219 -131 l 244 -14 q 86 22 151 -3 l 65 31 l 100 167 q 331 142 233 142 q 428 210 428 142 q 408 238 428 228 q 342 263 389 249 q 196 328 243 290 q 149 435 149 365 q 233 637 149 564 q 438 710 318 710 q 565 699 503 710 q 658 678 628 689 l 688 667 l 654 529 q 421 551 511 551 q 357 532 379 551 q 335 487 335 513 q 354 449 335 461 q 455 411 374 436 q 577 353 536 386 q 618 247 618 321 q 535 53 618 119 q 315 -17 453 -14 l 307 -46 l 315 -46 z "},"Š":{"ha":688,"x_min":69,"x_max":885,"o":"m 885 1288 l 663 1078 l 535 1078 l 406 1288 l 589 1288 l 629 1208 l 703 1288 l 885 1288 m 529 797 q 433 763 468 797 q 397 682 397 729 q 419 613 397 635 q 542 547 442 592 q 678 453 642 503 q 715 310 715 404 q 619 68 715 153 q 358 -17 522 -17 q 221 -3 293 -17 q 108 25 149 11 l 69 40 l 101 178 q 348 150 258 150 q 479 181 438 150 q 521 288 521 213 q 497 349 521 328 q 378 414 472 371 q 243 508 283 457 q 203 651 203 560 q 290 874 203 786 q 524 961 378 961 q 663 948 590 961 q 775 922 736 935 l 814 908 l 779 772 q 529 797 626 797 z "},"š":{"ha":600,"x_min":64,"x_max":769,"o":"m 419 551 q 356 532 378 551 q 333 487 333 513 q 353 449 333 461 q 453 411 372 436 q 576 353 535 386 q 617 247 617 321 q 531 50 617 117 q 304 -17 446 -17 q 184 -5 244 -17 q 94 19 124 7 l 64 31 l 99 167 q 329 142 232 142 q 426 210 426 142 q 407 238 426 228 q 340 263 388 249 q 194 328 242 290 q 147 435 147 365 q 232 637 147 564 q 436 710 317 710 q 564 699 501 710 q 656 678 626 689 l 686 667 l 653 529 q 419 551 510 551 m 538 799 l 419 799 l 306 1042 l 476 1042 l 517 950 l 590 1042 l 769 1042 l 538 799 z "},"Ţ":{"ha":633,"x_min":178,"x_max":839,"o":"m 350 -46 q 479 -131 479 -46 q 474 -172 479 -149 q 294 -318 439 -318 q 194 -307 239 -318 l 178 -303 l 206 -190 q 269 -192 247 -192 q 328 -158 319 -192 q 322 -136 332 -142 q 285 -131 311 -131 l 254 -131 l 283 0 l 219 0 l 399 778 l 192 778 l 231 944 l 839 944 l 800 778 l 590 778 l 411 0 l 354 0 l 342 -46 l 350 -46 z "},"ţ":{"ha":457,"x_min":126,"x_max":589,"o":"m 299 -46 q 428 -131 428 -46 q 422 -172 428 -149 q 243 -318 388 -318 q 143 -307 188 -318 l 126 -303 l 154 -190 q 218 -192 196 -192 q 276 -158 268 -192 q 270 -136 281 -142 q 233 -131 260 -131 l 203 -131 l 231 -6 q 161 47 185 10 q 138 136 138 83 q 158 275 138 189 l 219 536 l 144 536 l 186 694 l 257 694 l 297 872 l 483 872 l 443 694 l 589 694 l 550 536 l 406 536 l 342 258 q 331 181 331 211 q 371 142 331 142 l 465 149 l 450 15 q 299 -17 379 -15 l 290 -46 l 299 -46 z "},"Ť":{"ha":633,"x_min":192,"x_max":839,"o":"m 826 1288 l 604 1078 l 476 1078 l 347 1288 l 531 1288 l 571 1208 l 644 1288 l 826 1288 m 192 778 l 231 944 l 839 944 l 800 778 l 590 778 l 411 0 l 219 0 l 399 778 l 192 778 z "},"ť":{"ha":644,"x_min":138,"x_max":876,"o":"m 876 944 l 793 596 l 622 596 l 707 944 l 876 944 m 331 181 q 371 142 331 142 l 465 149 l 450 15 q 298 -17 376 -17 q 178 26 219 -17 q 138 128 138 68 q 158 275 138 189 l 219 536 l 144 536 l 186 694 l 257 694 l 297 872 l 483 872 l 443 694 l 589 694 l 550 536 l 406 536 l 342 258 q 331 181 331 211 z "},"Ŧ":{"ha":640,"x_min":135,"x_max":843,"o":"m 196 778 l 235 944 l 843 944 l 804 778 l 594 778 l 532 510 l 710 510 l 669 344 l 494 344 l 415 0 l 224 0 l 303 344 l 135 344 l 172 510 l 340 510 l 403 778 l 196 778 z "},"ŧ":{"ha":461,"x_min":92,"x_max":592,"o":"m 333 181 q 374 142 333 142 l 468 149 l 453 15 q 301 -17 379 -17 q 181 26 222 -17 q 140 128 140 68 q 161 275 140 189 l 161 278 l 92 278 l 126 439 l 199 439 l 222 536 l 147 536 l 189 694 l 260 694 l 300 872 l 486 872 l 446 694 l 592 694 l 553 536 l 408 536 l 386 439 l 513 439 l 478 278 l 349 278 l 344 258 q 333 181 333 211 z "},"Ũ":{"ha":826,"x_min":143,"x_max":963,"o":"m 825 1109 q 801 1095 825 1109 q 744 1082 778 1082 q 636 1112 710 1082 q 543 1142 563 1142 q 444 1100 511 1142 l 422 1088 l 417 1217 q 503 1279 458 1253 q 587 1306 549 1306 q 698 1276 625 1306 q 783 1247 771 1247 q 881 1286 814 1247 l 903 1300 l 906 1169 q 825 1109 872 1136 m 346 321 q 333 226 333 268 q 362 167 333 183 q 462 150 390 150 q 569 188 533 150 q 626 321 606 226 l 771 944 l 963 944 l 818 321 q 687 63 778 143 q 446 -17 596 -17 q 143 197 143 -17 q 161 351 143 269 l 299 944 l 490 944 l 346 321 z "},"ũ":{"ha":713,"x_min":121,"x_max":796,"o":"m 754 883 q 694 844 738 869 q 618 819 651 819 q 522 850 585 819 q 442 881 458 881 q 342 839 407 881 l 321 825 l 317 953 q 344 978 328 963 q 404 1018 361 993 q 483 1043 447 1043 q 582 1013 519 1043 q 658 983 644 983 q 754 1025 685 983 l 776 1038 l 782 908 l 754 883 m 290 -17 q 121 179 121 -17 q 150 354 121 233 l 228 694 l 414 694 l 339 368 q 314 224 314 264 q 326 164 314 183 q 364 144 338 144 q 481 207 411 144 l 503 228 l 610 694 l 796 694 l 636 0 l 458 0 l 467 68 q 383 10 435 36 q 290 -17 331 -17 z "},"Ū":{"ha":826,"x_min":143,"x_max":963,"o":"m 346 321 q 333 226 333 268 q 362 167 333 183 q 462 150 390 150 q 569 188 533 150 q 626 321 606 226 l 771 944 l 963 944 l 818 321 q 687 63 778 143 q 446 -17 596 -17 q 143 197 143 -17 q 161 351 143 269 l 299 944 l 490 944 l 346 321 m 424 1119 l 458 1271 l 913 1271 l 878 1119 l 424 1119 z "},"ū":{"ha":713,"x_min":121,"x_max":796,"o":"m 290 -17 q 121 179 121 -17 q 150 354 121 233 l 228 694 l 414 694 l 339 368 q 314 224 314 264 q 326 164 314 183 q 364 144 338 144 q 481 207 411 144 l 503 228 l 610 694 l 796 694 l 636 0 l 458 0 l 467 68 q 383 10 435 36 q 290 -17 331 -17 m 319 871 l 354 1022 l 783 1022 l 747 871 l 319 871 z "},"Ŭ":{"ha":826,"x_min":143,"x_max":963,"o":"m 617 1275 q 668 1233 617 1233 q 740 1288 719 1233 l 910 1288 q 814 1138 876 1189 q 642 1088 751 1088 q 490 1134 533 1088 q 446 1250 446 1181 q 449 1288 446 1268 l 618 1288 q 617 1275 617 1281 m 346 321 q 333 226 333 268 q 362 167 333 183 q 462 150 390 150 q 569 188 533 150 q 626 321 606 226 l 771 944 l 963 944 l 818 321 q 687 63 778 143 q 446 -17 596 -17 q 143 197 143 -17 q 161 351 143 269 l 299 944 l 490 944 l 346 321 z "},"ŭ":{"ha":713,"x_min":121,"x_max":817,"o":"m 290 -17 q 121 179 121 -17 q 150 354 121 233 l 228 694 l 414 694 l 339 368 q 314 224 314 264 q 326 164 314 183 q 364 144 338 144 q 481 207 411 144 l 503 228 l 610 694 l 796 694 l 636 0 l 458 0 l 467 68 q 383 10 435 36 q 290 -17 331 -17 m 503 1026 q 565 975 503 975 q 649 1036 626 975 l 817 1036 q 514 819 744 819 q 331 986 331 819 q 335 1036 331 1010 l 503 1036 q 503 1026 503 1031 z "},"Ů":{"ha":826,"x_min":143,"x_max":963,"o":"m 860 1160 q 781 1039 840 1081 q 639 997 721 997 q 517 1039 557 997 q 489 1100 489 1067 q 575 1281 489 1222 q 716 1322 635 1322 q 839 1282 797 1322 q 867 1208 867 1254 q 860 1160 867 1186 m 667 1117 q 739 1160 729 1117 q 727 1193 744 1183 q 688 1203 710 1203 q 615 1160 626 1203 q 625 1128 611 1140 q 667 1117 639 1117 m 346 321 q 333 226 333 268 q 362 167 333 183 q 462 150 390 150 q 569 188 533 150 q 626 321 606 226 l 771 944 l 963 944 l 818 321 q 687 63 778 143 q 446 -17 596 -17 q 143 197 143 -17 q 161 351 143 269 l 299 944 l 490 944 l 346 321 z "},"ů":{"ha":713,"x_min":121,"x_max":796,"o":"m 481 990 q 594 1032 528 1032 q 685 989 660 1032 q 700 935 700 964 q 629 772 700 831 q 515 732 581 732 q 425 775 450 732 q 408 829 408 801 q 481 990 408 928 m 546 842 q 596 882 583 842 q 591 910 601 899 q 565 921 581 921 q 515 883 526 921 q 519 855 510 868 q 546 842 528 842 m 290 -17 q 121 179 121 -17 q 150 354 121 233 l 228 694 l 414 694 l 339 368 q 314 224 314 264 q 326 164 314 183 q 364 144 338 144 q 481 207 411 144 l 503 228 l 610 694 l 796 694 l 636 0 l 458 0 l 467 68 q 383 10 435 36 q 290 -17 331 -17 z "},"Ű":{"ha":826,"x_min":143,"x_max":1001,"o":"m 833 1028 l 696 1083 l 850 1358 l 1001 1296 l 833 1028 m 550 1029 l 411 1083 l 567 1360 l 718 1297 l 550 1029 m 346 321 q 333 226 333 268 q 362 167 333 183 q 462 150 390 150 q 569 188 533 150 q 626 321 606 226 l 771 944 l 963 944 l 818 321 q 687 63 778 143 q 446 -17 596 -17 q 143 197 143 -17 q 161 351 143 269 l 299 944 l 490 944 l 346 321 z "},"ű":{"ha":713,"x_min":121,"x_max":911,"o":"m 683 782 l 571 872 l 788 1136 l 911 1043 l 683 782 m 414 782 l 303 872 l 518 1135 l 642 1043 l 414 782 m 290 -17 q 121 179 121 -17 q 150 354 121 233 l 228 694 l 414 694 l 339 368 q 314 224 314 264 q 326 164 314 183 q 364 144 338 144 q 481 207 411 144 l 503 228 l 610 694 l 796 694 l 636 0 l 458 0 l 467 68 q 383 10 435 36 q 290 -17 331 -17 z "},"Ų":{"ha":831,"x_min":146,"x_max":965,"o":"m 349 321 q 336 226 336 268 q 365 167 336 183 q 465 150 393 150 q 572 188 536 150 q 629 321 608 226 l 774 944 l 965 944 l 821 321 q 715 90 786 169 q 524 -10 644 10 q 469 -65 494 -33 q 444 -115 444 -96 q 463 -133 444 -133 l 514 -129 l 496 -282 q 361 -297 417 -297 q 275 -270 306 -297 q 244 -190 244 -243 q 356 -11 244 -107 q 146 197 146 18 q 164 351 146 269 l 301 944 l 493 944 l 349 321 z "},"ų":{"ha":713,"x_min":121,"x_max":796,"o":"m 636 0 q 568 -53 604 -17 q 532 -112 532 -90 q 550 -133 532 -133 l 601 -129 l 583 -282 q 449 -297 504 -297 q 363 -270 393 -297 q 332 -192 332 -243 q 371 -90 332 -142 q 458 1 410 -37 l 467 68 q 383 10 435 36 q 290 -17 331 -17 q 121 179 121 -17 q 150 354 121 233 l 228 694 l 414 694 l 339 368 q 314 224 314 264 q 326 164 314 183 q 364 144 338 144 q 481 207 411 144 l 503 228 l 610 694 l 796 694 l 636 0 z "},"Ŵ":{"ha":1201,"x_min":199,"x_max":1396,"o":"m 594 1082 l 839 1293 l 950 1293 l 1083 1082 l 914 1082 l 878 1158 l 792 1082 l 594 1082 m 242 944 l 433 944 l 375 176 l 394 176 l 708 931 l 919 931 l 874 176 l 893 176 l 1204 944 l 1396 944 l 992 0 l 714 0 l 760 686 l 485 0 l 199 0 l 242 944 z "},"ŵ":{"ha":1058,"x_min":147,"x_max":1193,"o":"m 188 694 l 375 694 l 331 158 l 363 158 l 583 681 l 794 681 l 767 158 l 799 158 l 1006 694 l 1193 694 l 910 0 l 600 0 l 626 432 l 451 0 l 147 0 l 188 694 m 471 799 l 704 1042 l 815 1042 l 935 799 l 765 799 l 732 888 l 651 799 l 471 799 z "},"Ŷ":{"ha":700,"x_min":219,"x_max":918,"o":"m 349 1082 l 593 1293 l 704 1293 l 838 1082 l 668 1082 l 632 1158 l 546 1082 l 349 1082 m 918 944 l 529 400 l 435 0 l 257 0 l 351 408 l 219 944 l 414 944 l 481 576 l 715 944 l 918 944 z "},"ŷ":{"ha":644,"x_min":142,"x_max":788,"o":"m 175 694 l 357 694 l 338 154 l 358 154 l 600 694 l 788 694 l 326 -292 l 142 -292 l 285 0 l 169 0 l 175 694 m 256 799 l 489 1042 l 600 1042 l 719 799 l 550 799 l 517 888 l 436 799 l 256 799 z "},"Ÿ":{"ha":700,"x_min":219,"x_max":918,"o":"m 379 1094 l 422 1282 l 576 1282 l 532 1094 l 379 1094 m 656 1094 l 699 1282 l 853 1282 l 807 1094 l 656 1094 m 918 944 l 529 400 l 435 0 l 257 0 l 351 408 l 219 944 l 414 944 l 481 576 l 715 944 l 918 944 z "},"Ź":{"ha":681,"x_min":50,"x_max":849,"o":"m 439 1063 l 425 1210 l 792 1336 l 806 1169 l 439 1063 m 229 778 l 268 944 l 849 944 l 804 751 l 314 200 l 306 167 l 669 167 l 631 0 l 50 0 l 93 190 l 581 744 l 588 778 l 229 778 z "},"ź":{"ha":575,"x_min":47,"x_max":697,"o":"m 210 694 l 689 694 l 650 540 l 300 158 l 567 158 l 526 0 l 47 0 l 82 156 l 431 536 l 169 536 l 210 694 m 331 800 l 317 949 l 683 1075 l 697 908 l 331 800 z "},"Ż":{"ha":681,"x_min":50,"x_max":849,"o":"m 510 1071 l 554 1263 l 718 1263 l 671 1071 l 510 1071 m 229 778 l 268 944 l 849 944 l 804 751 l 314 200 l 306 167 l 669 167 l 631 0 l 50 0 l 93 190 l 581 744 l 588 778 l 229 778 z "},"ż":{"ha":575,"x_min":47,"x_max":689,"o":"m 210 694 l 689 694 l 650 540 l 300 158 l 567 158 l 526 0 l 47 0 l 82 156 l 431 536 l 169 536 l 210 694 m 383 808 l 428 999 l 589 999 l 544 808 l 383 808 z "},"Ž":{"ha":681,"x_min":50,"x_max":875,"o":"m 875 1288 l 653 1078 l 525 1078 l 396 1288 l 579 1288 l 619 1208 l 693 1288 l 875 1288 m 229 778 l 268 944 l 849 944 l 804 751 l 314 200 l 306 167 l 669 167 l 631 0 l 50 0 l 93 190 l 581 744 l 588 778 l 229 778 z "},"ž":{"ha":575,"x_min":47,"x_max":756,"o":"m 524 799 l 406 799 l 292 1042 l 463 1042 l 503 950 l 576 1042 l 756 1042 l 524 799 m 169 536 l 210 694 l 689 694 l 650 540 l 300 158 l 567 158 l 526 0 l 47 0 l 82 156 l 431 536 l 169 536 z "},"ƒ":{"ha":778,"x_min":24,"x_max":865,"o":"m 153 -337 q 46 -324 119 -337 l 24 -319 l 57 -172 q 164 -176 126 -176 q 246 -87 225 -176 l 390 521 l 268 521 l 307 693 l 431 693 l 439 722 q 536 928 482 872 q 685 983 590 983 q 865 965 781 983 l 828 810 q 704 813 746 813 q 615 711 632 813 l 613 693 l 797 693 l 757 521 l 572 521 l 426 -87 q 330 -285 392 -232 q 153 -337 268 -337 z "},"Ǻ":{"ha":765,"x_min":18,"x_max":860,"o":"m 435 925 q 433 953 433 936 q 439 996 433 971 q 518 1117 458 1076 q 659 1158 578 1158 q 781 1118 740 1158 q 810 1044 810 1090 q 772 926 810 979 l 744 0 l 553 0 l 558 164 l 283 164 l 210 0 l 18 0 l 435 925 m 493 1189 l 479 1338 l 846 1464 l 860 1297 l 493 1189 m 556 778 l 356 331 l 565 331 l 585 778 l 556 778 m 558 996 q 557 983 557 992 q 569 963 557 974 q 610 953 582 953 q 682 996 672 953 q 683 1012 683 1001 q 668 1031 683 1022 q 631 1039 653 1039 q 558 996 569 1039 z "},"ǻ":{"ha":733,"x_min":111,"x_max":874,"o":"m 507 1053 l 492 1215 l 858 1342 l 874 1161 l 507 1053 m 307 -17 q 158 52 206 -17 q 111 236 111 121 q 192 543 111 396 q 303 664 232 617 q 464 711 374 711 q 747 678 560 711 l 811 665 l 707 217 l 669 4 l 485 -3 q 503 106 497 82 q 369 -3 446 29 q 307 -17 338 -17 m 469 553 q 376 499 417 553 q 300 236 300 396 q 315 165 300 188 q 363 142 331 142 q 437 172 396 142 q 506 233 478 203 l 533 265 l 597 533 q 469 553 506 553 m 517 990 q 630 1032 564 1032 q 721 989 696 1032 q 736 935 736 964 q 665 772 736 831 q 551 732 617 732 q 461 775 486 732 q 444 829 444 801 q 517 990 444 928 m 551 883 q 549 870 549 878 q 556 852 549 863 q 582 842 564 842 q 632 882 619 842 q 633 895 633 888 q 625 912 633 903 q 601 921 617 921 q 551 883 563 921 z "},"Ǽ":{"ha":1047,"x_min":19,"x_max":1224,"o":"m 435 0 l 474 165 l 275 165 l 201 0 l 19 0 l 447 958 l 1224 958 l 1182 776 l 799 779 l 746 558 l 1051 558 l 1011 385 l 704 385 l 656 181 l 1039 181 l 999 0 l 435 0 m 546 778 l 356 343 l 517 343 l 618 778 l 546 778 m 686 1063 l 672 1210 l 1039 1336 l 1053 1169 l 686 1063 z "},"ǽ":{"ha":992,"x_min":71,"x_max":1057,"o":"m 628 232 q 724 151 628 151 q 925 161 790 151 l 963 164 l 931 22 q 667 -17 804 -17 q 478 51 529 -17 q 360 8 442 32 q 233 -17 279 -17 q 101 54 146 -17 q 72 142 72 101 q 79 213 72 183 q 292 419 119 388 q 419 433 369 433 q 485 433 469 433 q 494 474 494 451 q 450 536 494 536 q 239 522 364 536 l 197 517 l 226 679 q 509 710 403 710 q 657 653 615 710 q 839 710 735 710 q 997 661 943 710 q 1056 506 1056 607 q 1038 385 1056 450 l 1006 267 l 632 269 q 628 232 628 250 m 256 199 q 299 143 256 143 q 439 161 364 143 q 438 206 438 175 q 453 294 438 236 q 343 289 418 294 q 289 267 313 286 q 256 199 256 242 m 872 408 q 882 464 882 443 q 879 497 882 485 q 805 550 868 550 q 712 515 742 550 q 664 411 682 479 l 872 408 m 538 800 l 524 949 l 890 1075 l 904 908 l 538 800 z "},"Ǿ":{"ha":857,"x_min":75,"x_max":1013,"o":"m 142 272 q 197 615 142 454 q 360 869 253 776 q 624 961 467 961 q 783 933 719 961 l 910 1118 l 1013 1075 l 871 867 q 931 672 931 793 q 874 317 931 482 q 439 -17 758 -17 q 288 10 356 -17 l 167 -168 l 75 -112 l 201 74 q 142 272 142 146 m 539 1049 l 524 1210 l 890 1336 l 906 1156 l 539 1049 m 393 164 q 481 150 421 150 q 589 197 542 150 q 694 394 654 263 q 733 653 733 526 l 733 664 l 393 164 m 679 781 q 591 794 651 794 q 489 753 531 794 q 379 547 419 685 q 339 292 339 408 l 339 278 l 679 781 z "},"ǿ":{"ha":689,"x_min":78,"x_max":769,"o":"m 463 710 q 581 694 526 710 l 671 842 l 769 799 l 669 643 q 736 456 736 576 q 699 232 736 335 q 578 56 661 129 q 385 -17 496 -17 q 265 0 317 -17 l 175 -149 l 78 -106 l 178 50 q 111 235 111 114 q 151 461 111 357 q 274 638 192 565 q 463 710 357 710 m 386 800 l 372 949 l 739 1075 l 753 908 l 386 800 m 463 551 q 342 456 388 551 q 296 243 296 361 l 296 233 l 383 369 l 492 547 q 463 551 478 551 m 385 142 q 506 237 460 142 q 551 450 551 332 l 551 458 l 467 326 l 356 144 q 385 142 372 142 z "},"Ș":{"ha":688,"x_min":69,"x_max":814,"o":"m 250 -100 l 421 -100 l 272 -429 l 115 -429 l 250 -100 m 529 797 q 433 763 468 797 q 397 682 397 729 q 419 613 397 635 q 542 547 442 592 q 678 453 642 503 q 715 310 715 404 q 619 68 715 153 q 358 -17 522 -17 q 221 -3 293 -17 q 108 25 149 11 l 69 40 l 101 178 q 348 150 258 150 q 479 181 438 150 q 521 288 521 213 q 497 349 521 328 q 378 414 472 371 q 243 508 283 457 q 203 651 203 560 q 290 874 203 786 q 524 961 378 961 q 663 948 590 961 q 775 922 736 935 l 814 908 l 779 772 q 529 797 626 797 z "},"ș":{"ha":600,"x_min":64,"x_max":686,"o":"m 419 551 q 356 532 378 551 q 333 487 333 513 q 353 449 333 461 q 453 411 372 436 q 576 353 535 386 q 617 247 617 321 q 531 50 617 117 q 304 -17 446 -17 q 184 -5 244 -17 q 94 19 124 7 l 64 31 l 99 167 q 329 142 232 142 q 426 210 426 142 q 407 238 426 228 q 340 263 388 249 q 194 328 242 290 q 147 435 147 365 q 232 637 147 564 q 436 710 317 710 q 564 699 501 710 q 656 678 626 689 l 686 667 l 653 529 q 419 551 510 551 m 215 -100 l 386 -100 l 238 -429 l 81 -429 l 215 -100 z "},"Ț":{"ha":633,"x_min":81,"x_max":839,"o":"m 215 -100 l 386 -100 l 238 -429 l 81 -429 l 215 -100 m 192 778 l 231 944 l 839 944 l 800 778 l 590 778 l 411 0 l 219 0 l 399 778 l 192 778 z "},"ț":{"ha":457,"x_min":21,"x_max":589,"o":"m 331 181 q 371 142 331 142 l 465 149 l 450 15 q 298 -17 376 -17 q 178 26 219 -17 q 138 128 138 68 q 158 275 138 189 l 219 536 l 144 536 l 186 694 l 257 694 l 297 872 l 483 872 l 443 694 l 589 694 l 550 536 l 406 536 l 342 258 q 331 181 331 211 m 156 -100 l 326 -100 l 178 -429 l 21 -429 l 156 -100 z "},"ˆ":{"ha":1099,"x_min":490,"x_max":954,"o":"m 490 799 l 724 1042 l 835 1042 l 954 799 l 785 799 l 751 888 l 671 799 l 490 799 z "},"ˇ":{"ha":1099,"x_min":549,"x_max":1013,"o":"m 781 799 l 663 799 l 549 1042 l 719 1042 l 760 950 l 833 1042 l 1013 1042 l 781 799 z "},"˘":{"ha":642,"x_min":288,"x_max":774,"o":"m 460 1026 q 522 975 460 975 q 606 1036 583 975 l 774 1036 q 471 819 701 819 q 288 986 288 819 q 292 1036 288 1010 l 460 1036 q 460 1026 460 1031 z "},"˙":{"ha":354,"x_min":286,"x_max":492,"o":"m 286 808 l 331 999 l 492 999 l 447 808 l 286 808 z "},"˚":{"ha":1099,"x_min":413,"x_max":706,"o":"m 483 990 q 598 1032 532 1032 q 689 989 664 1032 q 704 935 704 964 q 633 772 704 831 q 519 732 585 732 q 428 775 454 732 q 413 829 413 801 q 483 990 413 928 m 519 883 q 517 870 517 878 q 524 852 517 863 q 550 842 532 842 q 600 882 588 842 q 601 895 601 888 q 593 912 601 903 q 569 921 585 921 q 519 883 531 921 z "},"˛":{"ha":625,"x_min":243,"x_max":546,"o":"m 494 -282 q 360 -297 415 -297 q 274 -270 304 -297 q 243 -189 243 -243 q 294 -74 243 -135 q 396 21 344 -14 l 546 7 q 480 -51 517 -11 q 443 -112 443 -92 q 461 -133 443 -133 l 513 -129 l 494 -282 z "},"˜":{"ha":619,"x_min":274,"x_max":739,"o":"m 711 883 q 651 844 694 869 q 575 819 608 819 q 478 850 542 819 q 397 881 415 881 q 300 839 364 881 l 278 825 l 274 953 q 301 978 285 963 q 361 1018 318 993 q 440 1043 404 1043 q 539 1013 476 1043 q 615 983 601 983 q 711 1025 642 983 l 733 1038 l 739 908 l 711 883 z "},"˝":{"ha":957,"x_min":378,"x_max":986,"o":"m 758 782 l 646 872 l 863 1136 l 986 1043 l 758 782 m 489 782 l 378 872 l 593 1135 l 717 1043 l 489 782 z "},"π":{"ha":778,"x_min":114,"x_max":822,"o":"m 533 214 l 533 536 l 415 536 l 379 0 l 192 0 l 236 536 q 135 522 192 536 l 114 518 l 114 669 q 322 694 203 694 l 671 694 q 803 707 742 694 l 822 711 l 822 558 q 719 539 789 543 l 719 214 q 739 160 719 176 q 815 144 758 144 l 815 -14 q 665 -6 718 -14 q 581 31 611 3 q 542 99 550 60 q 533 214 533 139 z "},"Ẁ":{"ha":1201,"x_min":199,"x_max":1396,"o":"m 718 1319 l 1026 1193 l 942 1047 l 626 1154 l 718 1319 m 242 944 l 433 944 l 375 176 l 394 176 l 708 931 l 919 931 l 874 176 l 893 176 l 1204 944 l 1396 944 l 992 0 l 714 0 l 760 686 l 485 0 l 199 0 l 242 944 z "},"ẁ":{"ha":1058,"x_min":147,"x_max":1193,"o":"m 561 1072 l 868 947 l 790 810 l 472 919 l 561 1072 m 188 694 l 375 694 l 331 158 l 363 158 l 583 681 l 794 681 l 767 158 l 799 158 l 1006 694 l 1193 694 l 910 0 l 600 0 l 626 432 l 451 0 l 147 0 l 188 694 z "},"Ẃ":{"ha":1201,"x_min":199,"x_max":1396,"o":"m 697 1063 l 683 1210 l 1050 1336 l 1064 1169 l 697 1063 m 242 944 l 433 944 l 375 176 l 394 176 l 708 931 l 919 931 l 874 176 l 893 176 l 1204 944 l 1396 944 l 992 0 l 714 0 l 760 686 l 485 0 l 199 0 l 242 944 z "},"ẃ":{"ha":1058,"x_min":147,"x_max":1193,"o":"m 188 694 l 375 694 l 331 158 l 363 158 l 583 681 l 794 681 l 767 158 l 799 158 l 1006 694 l 1193 694 l 910 0 l 600 0 l 626 432 l 451 0 l 147 0 l 188 694 m 556 800 l 542 949 l 908 1075 l 922 908 l 556 800 z "},"Ẅ":{"ha":1201,"x_min":199,"x_max":1396,"o":"m 624 1094 l 667 1282 l 821 1282 l 776 1094 l 624 1094 m 900 1094 l 943 1282 l 1097 1282 l 1051 1094 l 900 1094 m 242 944 l 433 944 l 375 176 l 394 176 l 708 931 l 919 931 l 874 176 l 893 176 l 1204 944 l 1396 944 l 992 0 l 714 0 l 760 686 l 485 0 l 199 0 l 242 944 z "},"ẅ":{"ha":1058,"x_min":147,"x_max":1193,"o":"m 188 694 l 375 694 l 331 158 l 363 158 l 583 681 l 794 681 l 767 158 l 799 158 l 1006 694 l 1193 694 l 910 0 l 600 0 l 626 432 l 451 0 l 147 0 l 188 694 m 494 835 l 538 1022 l 692 1022 l 647 835 l 494 835 m 764 835 l 807 1022 l 961 1022 l 917 835 l 764 835 z "},"ẫ":{"ha":733,"x_min":111,"x_max":878,"o":"m 307 -17 q 158 52 206 -17 q 111 236 111 121 q 192 543 111 396 q 303 664 232 617 q 464 711 374 711 q 747 678 560 711 l 811 665 l 707 217 l 669 4 l 485 -3 q 503 106 497 82 q 369 -3 446 29 q 307 -17 338 -17 m 469 553 q 376 499 417 553 q 300 236 300 396 q 315 165 300 188 q 363 142 331 142 q 437 172 396 142 q 506 233 478 203 l 533 265 l 597 533 q 469 553 506 553 m 850 1106 q 790 1067 833 1092 q 714 1042 747 1042 q 617 1072 681 1042 q 536 1103 554 1103 q 439 1061 503 1103 l 417 1047 l 413 1175 q 440 1200 424 1185 q 500 1240 457 1215 q 579 1265 543 1265 q 678 1235 615 1265 q 754 1206 740 1206 q 850 1247 781 1206 l 872 1260 l 878 1131 l 850 1106 m 328 757 l 561 1000 l 672 1000 l 792 757 l 622 757 l 589 846 l 508 757 l 328 757 z "},"Ằ":{"ha":765,"x_min":18,"x_max":921,"o":"m 614 1574 l 921 1449 l 843 1311 l 525 1421 l 614 1574 m 18 0 l 443 944 l 774 944 l 744 0 l 553 0 l 558 164 l 283 164 l 210 0 l 18 0 m 556 778 l 356 331 l 565 331 l 585 778 l 556 778 m 607 1219 q 658 1178 607 1178 q 731 1232 710 1178 l 900 1232 q 804 1083 867 1133 q 633 1032 742 1032 q 480 1078 524 1032 q 436 1194 436 1125 q 439 1232 436 1213 l 608 1232 q 607 1219 607 1225 z "},"ễ":{"ha":661,"x_min":113,"x_max":843,"o":"m 815 1106 q 756 1067 799 1092 q 679 1042 713 1042 q 583 1072 646 1042 q 503 1103 519 1103 q 403 1061 468 1103 l 382 1047 l 378 1175 q 406 1200 389 1185 q 465 1240 422 1215 q 544 1265 508 1265 q 643 1235 581 1265 q 719 1206 706 1206 q 815 1247 746 1206 l 838 1260 l 843 1131 l 815 1106 m 299 219 q 299 201 299 219 q 327 163 299 183 q 399 142 356 142 q 594 156 494 142 l 631 160 l 610 22 q 354 -17 481 -17 q 170 40 228 -17 q 113 207 113 97 q 135 403 113 317 q 201 558 157 489 q 320 669 244 628 q 493 710 396 710 q 736 503 736 710 q 647 321 736 371 q 351 271 558 271 l 303 271 q 299 219 299 254 m 381 408 q 515 429 476 408 q 553 500 553 450 q 483 560 553 560 q 324 408 360 560 l 381 408 m 283 757 l 517 1000 l 628 1000 l 747 757 l 578 757 l 544 846 l 464 757 l 283 757 z "},"ỗ":{"ha":689,"x_min":111,"x_max":835,"o":"m 463 710 q 736 447 736 710 q 699 232 736 335 q 578 56 661 129 q 385 -17 496 -17 q 111 246 111 -17 q 151 461 111 357 q 274 638 192 565 q 463 710 357 710 m 385 142 q 506 237 460 142 q 551 450 551 332 q 463 551 551 551 q 342 456 388 551 q 296 243 296 361 q 385 142 296 142 m 807 1106 q 747 1067 790 1092 q 671 1042 704 1042 q 574 1072 638 1042 q 494 1103 511 1103 q 394 1061 460 1103 l 374 1047 l 369 1175 q 397 1200 381 1185 q 457 1240 414 1215 q 536 1265 500 1265 q 635 1235 572 1265 q 711 1206 697 1206 q 807 1247 738 1206 l 829 1260 l 835 1131 l 807 1106 m 281 757 l 514 1000 l 625 1000 l 744 757 l 575 757 l 542 846 l 461 757 l 281 757 z "},"Ỳ":{"ha":700,"x_min":219,"x_max":918,"o":"m 471 1319 l 779 1193 l 694 1047 l 379 1154 l 471 1319 m 918 944 l 529 400 l 435 0 l 257 0 l 351 408 l 219 944 l 414 944 l 481 576 l 715 944 l 918 944 z "},"ỳ":{"ha":644,"x_min":142,"x_max":788,"o":"m 356 1072 l 663 947 l 585 810 l 267 919 l 356 1072 m 175 694 l 357 694 l 338 154 l 358 154 l 600 694 l 788 694 l 326 -292 l 142 -292 l 285 0 l 169 0 l 175 694 z "},"Ỹ":{"ha":700,"x_min":219,"x_max":918,"o":"m 828 1150 q 768 1110 811 1135 q 692 1085 725 1085 q 595 1115 658 1085 q 514 1146 532 1146 q 417 1104 481 1146 l 394 1090 l 390 1218 q 418 1243 401 1228 q 478 1283 435 1258 q 557 1308 521 1308 q 656 1278 593 1308 q 732 1249 718 1249 q 828 1289 764 1249 l 850 1303 l 856 1174 l 828 1150 m 918 944 l 529 400 l 435 0 l 257 0 l 351 408 l 219 944 l 414 944 l 481 576 l 715 944 l 918 944 z "},"ỹ":{"ha":644,"x_min":142,"x_max":788,"o":"m 739 883 q 679 844 722 869 q 603 819 636 819 q 506 850 569 819 q 425 881 443 881 q 328 839 392 881 l 306 825 l 301 953 q 329 978 313 963 q 389 1018 346 993 q 468 1043 432 1043 q 567 1013 504 1043 q 643 983 629 983 q 739 1025 669 983 l 761 1038 l 767 908 l 739 883 m 175 694 l 357 694 l 338 154 l 358 154 l 600 694 l 788 694 l 326 -292 l 142 -292 l 285 0 l 169 0 l 175 694 z "},"–":{"ha":731,"x_min":104,"x_max":799,"o":"m 104 449 l 799 449 l 799 290 l 104 290 l 104 449 z "},"—":{"ha":1425,"x_min":104,"x_max":1493,"o":"m 104 449 l 1493 449 l 1493 290 l 104 290 l 104 449 z "},"‘":{"ha":242,"x_min":133,"x_max":463,"o":"m 324 943 l 463 943 l 317 589 l 133 589 l 324 943 z "},"’":{"ha":242,"x_min":133,"x_max":463,"o":"m 272 590 l 133 590 l 279 944 l 463 944 l 272 590 z "},"‚":{"ha":208,"x_min":-92,"x_max":238,"o":"m 47 -229 l -92 -229 l 54 125 l 238 125 l 47 -229 z "},"“":{"ha":504,"x_min":131,"x_max":724,"o":"m 321 944 l 460 944 l 314 590 l 131 590 l 321 944 m 585 944 l 724 944 l 578 590 l 394 590 l 585 944 z "},"”":{"ha":506,"x_min":133,"x_max":726,"o":"m 272 590 l 133 590 l 279 944 l 463 944 l 272 590 m 536 590 l 397 590 l 543 944 l 726 944 l 536 590 z "},"„":{"ha":482,"x_min":-126,"x_max":508,"o":"m 369 118 l 508 118 l 363 -236 l 179 -236 l 369 118 m 64 118 l 203 118 l 57 -236 l -126 -236 l 64 118 z "},"†":{"ha":631,"x_min":156,"x_max":751,"o":"m 156 503 l 197 690 l 389 690 l 444 928 l 618 928 l 563 690 l 751 690 l 711 503 l 519 503 l 376 -97 l 204 -97 l 344 503 l 156 503 z "},"‡":{"ha":657,"x_min":82,"x_max":764,"o":"m 218 -97 l 272 139 l 82 139 l 125 326 l 317 326 l 358 503 l 169 503 l 211 690 l 403 689 l 458 928 l 632 928 l 576 690 l 764 690 l 724 503 l 533 503 l 490 326 l 682 326 l 638 139 l 446 139 l 390 -97 l 218 -97 z "},"•":{"ha":636,"x_min":222,"x_max":569,"o":"m 222 139 l 222 528 l 569 528 l 569 139 l 222 139 z "},"…":{"ha":853,"x_min":11,"x_max":890,"o":"m 11 0 l 60 213 l 249 213 l 200 0 l 11 0 m 331 0 l 379 213 l 568 213 l 519 0 l 331 0 m 653 0 l 701 213 l 890 213 l 842 0 l 653 0 z "},"‰":{"ha":1157,"x_min":200,"x_max":1182,"o":"m 405 863 q 395 863 405 863 q 376 843 386 863 q 353 776 365 824 q 340 705 340 729 q 359 681 340 681 q 389 701 378 681 q 412 769 400 722 q 424 839 424 815 q 405 863 424 863 m 200 -3 l 717 1000 l 828 968 l 313 -33 l 200 -3 m 204 689 q 215 772 204 725 q 432 974 265 974 q 560 854 560 974 q 549 772 560 818 q 332 569 499 569 q 204 689 204 569 m 696 404 q 824 285 824 404 q 813 203 824 249 q 596 0 763 0 q 468 119 468 0 q 479 203 468 156 q 696 404 529 404 m 669 293 q 659 293 669 293 q 639 273 650 293 q 615 206 628 253 q 603 135 603 158 q 622 111 603 111 q 652 132 640 111 q 676 199 664 153 q 688 269 688 246 q 669 293 688 293 m 1053 404 q 1181 285 1181 404 q 1169 203 1181 249 q 953 0 1119 0 q 825 119 825 0 q 836 203 825 156 q 1053 404 886 404 m 1026 293 q 1016 293 1026 293 q 996 273 1007 293 q 972 206 985 253 q 960 135 960 158 q 978 111 960 111 q 1009 132 997 111 q 1033 199 1021 153 q 1044 269 1044 246 q 1026 293 1044 293 z "},"‹":{"ha":322,"x_min":74,"x_max":453,"o":"m 453 606 l 401 424 l 244 333 l 356 226 l 310 60 l 74 294 l 106 379 l 453 606 z "},"›":{"ha":325,"x_min":26,"x_max":406,"o":"m 26 60 l 78 242 l 235 332 l 124 439 l 169 606 l 406 371 l 374 286 l 26 60 z "},"⁄":{"ha":101,"x_min":-219,"x_max":554,"o":"m -44 -44 l -219 17 l 379 986 l 554 925 l -44 -44 z "},"⁰":{"ha":389,"x_min":201,"x_max":593,"o":"m 325 1079 q 458 1113 371 1113 q 578 1058 546 1113 q 593 988 593 1032 q 576 878 593 943 q 472 679 539 726 q 338 649 428 649 q 217 700 247 649 q 201 768 201 724 q 218 878 201 813 q 325 1079 256 1028 m 440 960 q 424 981 440 981 q 398 962 408 981 q 374 889 388 943 q 357 801 357 822 q 373 781 357 781 q 399 797 389 781 q 427 886 414 822 q 440 960 440 950 z "},"⁴":{"ha":389,"x_min":182,"x_max":581,"o":"m 358 664 l 369 713 l 182 713 l 213 835 l 336 1097 l 500 1097 l 365 844 l 403 844 l 454 969 l 581 969 l 549 844 l 564 844 l 531 713 l 515 713 l 504 664 l 358 664 z "},"⁵":{"ha":389,"x_min":183,"x_max":603,"o":"m 450 946 q 553 858 553 946 q 546 808 553 836 q 476 690 524 726 q 343 654 428 654 q 207 669 278 654 l 183 674 l 225 792 q 342 779 299 779 q 390 800 386 779 q 376 822 396 822 l 339 817 l 235 832 l 315 1097 l 603 1097 l 572 972 l 400 972 l 388 938 q 450 946 428 946 z "},"⁶":{"ha":389,"x_min":208,"x_max":614,"o":"m 576 975 q 444 983 486 983 q 393 947 401 983 q 447 954 425 954 q 563 861 563 954 q 556 808 563 838 q 350 649 514 649 q 210 775 210 649 q 222 864 210 814 q 310 1051 253 989 q 474 1113 368 1113 q 589 1100 517 1113 l 614 1096 l 576 975 m 361 824 q 358 800 358 810 q 375 776 358 776 q 406 806 399 776 q 408 819 408 813 q 392 835 408 835 q 361 824 375 835 z "},"⁷":{"ha":389,"x_min":194,"x_max":606,"o":"m 254 951 l 290 1097 l 606 1097 l 571 957 l 363 650 l 194 679 l 388 933 l 392 951 l 254 951 z "},"⁸":{"ha":389,"x_min":193,"x_max":604,"o":"m 457 1113 q 603 1022 603 1113 q 582 944 603 978 q 549 900 561 911 l 536 889 q 555 861 547 882 q 563 826 563 840 q 556 794 563 813 q 483 682 536 715 q 341 649 431 649 q 217 682 251 649 q 193 735 193 703 q 200 794 193 767 q 224 846 207 822 q 254 881 240 869 l 268 890 q 253 920 258 900 q 249 954 249 940 q 256 989 249 968 q 457 1113 286 1113 m 378 832 q 350 788 350 810 q 373 767 350 767 q 406 797 396 767 q 397 832 410 814 l 378 832 m 422 933 q 447 975 447 956 q 426 994 447 994 q 396 968 404 994 q 394 956 394 964 q 403 933 394 949 l 422 933 z "},"⁹":{"ha":389,"x_min":183,"x_max":585,"o":"m 394 813 q 344 807 367 807 q 232 899 232 807 q 239 951 232 922 q 313 1070 258 1028 q 444 1113 367 1113 q 583 981 583 1113 q 569 883 583 939 q 484 704 538 760 q 329 649 431 649 q 206 664 269 649 l 183 668 l 222 789 q 338 781 289 781 q 394 813 388 781 m 431 929 q 435 965 435 947 q 418 983 435 983 q 388 951 397 983 q 386 939 386 944 q 403 921 386 921 l 431 929 z "},"₀":{"ha":389,"x_min":49,"x_max":440,"o":"m 172 415 q 306 449 218 449 q 425 394 393 449 q 440 324 440 368 q 424 214 440 279 q 319 15 386 63 q 185 -15 275 -15 q 64 36 94 -15 q 49 104 49 60 q 65 214 49 149 q 172 415 103 364 m 288 296 q 272 317 288 317 q 245 298 256 317 q 221 225 235 279 q 204 138 204 158 q 220 117 204 117 q 246 133 236 117 q 274 222 261 158 q 288 296 288 286 z "},"₁":{"ha":389,"x_min":90,"x_max":396,"o":"m 90 190 l 263 294 l 396 294 l 289 -139 l 142 -139 l 208 132 l 132 88 l 90 190 z "},"₂":{"ha":389,"x_min":-6,"x_max":400,"o":"m 106 297 q 283 310 210 310 q 383 278 357 310 q 400 231 400 260 q 390 164 400 203 q 279 32 371 89 l 217 -7 l 347 -7 l 315 -139 l -6 -139 l 25 -14 l 147 68 q 231 147 222 118 q 223 164 233 160 q 185 168 213 168 l 76 160 l 106 297 z "},"₃":{"ha":389,"x_min":-12,"x_max":399,"o":"m 256 310 q 397 222 397 310 q 393 186 397 206 q 329 89 376 114 q 358 33 358 75 q 351 -12 358 14 q 153 -154 317 -154 l -12 -143 l 28 -14 q 154 -22 111 -22 q 203 0 197 -22 q 199 16 206 13 q 171 19 192 19 l 79 19 l 108 138 l 197 138 q 229 153 225 138 q 225 173 233 168 q 199 178 217 178 l 79 171 l 103 297 q 256 310 200 310 z "},"₄":{"ha":389,"x_min":-3,"x_max":396,"o":"m 174 -139 l 185 -90 l -3 -90 l 28 32 l 151 294 l 315 294 l 181 42 l 218 42 l 269 167 l 396 167 l 364 42 l 379 42 l 346 -90 l 331 -90 l 319 -139 l 174 -139 z "},"₅":{"ha":389,"x_min":-8,"x_max":411,"o":"m 258 143 q 361 56 361 143 q 354 6 361 33 q 284 -112 332 -76 q 151 -149 236 -149 q 15 -133 86 -149 l -8 -129 l 33 -11 q 151 -24 107 -24 q 199 -3 194 -24 q 185 19 204 19 l 147 14 l 43 29 l 124 294 l 411 294 l 381 169 l 208 169 l 196 135 q 258 143 236 143 z "},"₆":{"ha":389,"x_min":22,"x_max":428,"o":"m 390 172 q 258 181 300 181 q 207 144 215 181 q 261 151 239 151 q 376 58 376 151 q 369 6 376 35 q 164 -154 328 -154 q 24 -28 24 -154 q 36 61 24 11 q 124 248 67 186 q 288 310 182 310 q 404 297 333 310 l 428 293 l 390 172 m 175 21 q 172 -3 172 7 q 189 -26 172 -26 q 219 3 213 -26 q 222 17 222 10 q 206 32 222 32 q 175 21 189 32 z "},"₇":{"ha":389,"x_min":10,"x_max":421,"o":"m 69 149 l 106 294 l 421 294 l 386 154 l 178 -153 l 10 -124 l 203 131 l 207 149 l 69 149 z "},"₈":{"ha":389,"x_min":6,"x_max":417,"o":"m 269 310 q 415 219 415 310 q 394 142 415 175 q 361 97 374 108 l 349 86 q 367 58 360 79 q 375 24 375 38 q 368 -8 375 10 q 296 -121 349 -87 q 153 -154 243 -154 q 28 -121 64 -154 q 6 -68 6 -100 q 13 -8 6 -36 q 36 44 19 19 q 67 78 53 68 l 81 88 q 66 117 71 97 q 61 151 61 138 q 68 186 61 165 q 269 310 99 310 m 190 29 q 163 -15 163 7 q 185 -36 163 -36 q 218 -6 208 -36 q 210 29 222 11 l 190 29 m 235 131 q 260 172 260 153 q 238 192 260 192 q 208 165 217 192 q 215 131 206 151 l 235 131 z "},"₉":{"ha":389,"x_min":-1,"x_max":400,"o":"m 210 10 q 160 4 182 4 q 47 96 47 4 q 54 149 47 119 q 128 267 74 225 q 260 310 182 310 q 399 178 399 310 q 385 81 399 136 q 299 -99 353 -43 q 144 -154 246 -154 q 19 -139 85 -154 l -1 -135 l 38 -14 q 153 -22 104 -22 q 210 10 203 -22 m 246 126 q 250 163 250 144 q 233 181 250 181 q 203 149 213 181 q 201 136 201 142 q 218 118 201 118 l 246 126 z "},"€":{"ha":778,"x_min":126,"x_max":910,"o":"m 483 -17 q 207 250 207 -17 l 207 254 l 126 254 l 160 400 l 217 400 q 236 496 228 464 l 181 496 l 215 642 l 283 642 q 679 933 413 933 q 878 903 783 933 l 910 893 l 867 756 q 672 771 783 771 q 485 642 561 771 l 771 642 l 738 496 l 428 496 q 408 400 414 446 l 717 400 l 683 254 l 399 254 q 508 146 401 146 q 694 158 601 146 l 726 163 l 711 19 q 483 -17 586 -17 z "},"™":{"ha":957,"x_min":297,"x_max":1014,"o":"m 297 785 l 297 894 l 575 894 l 575 785 l 518 785 l 518 461 l 396 461 l 396 785 l 297 785 m 610 460 l 610 894 l 753 894 l 810 675 l 872 894 l 1014 894 l 1014 460 l 900 460 l 900 701 l 853 489 l 776 489 l 724 701 l 724 460 l 610 460 z "},"Ω":{"ha":778,"x_min":143,"x_max":810,"o":"m 160 146 l 271 146 q 231 206 258 158 q 188 294 204 253 q 143 535 143 408 q 221 839 143 744 q 476 933 299 933 q 732 839 654 933 q 810 535 810 744 q 778 332 810 429 q 714 190 746 235 l 682 146 l 793 146 l 793 -12 l 504 -12 l 504 125 q 578 301 544 193 q 613 486 613 408 q 587 707 613 647 q 476 767 561 767 q 366 707 392 767 q 340 486 340 647 q 367 318 340 408 q 422 176 394 228 l 449 125 l 449 -12 l 160 -12 l 160 146 z "},"∂":{"ha":778,"x_min":151,"x_max":832,"o":"m 476 989 q 748 865 664 989 q 832 485 832 742 q 749 108 832 228 q 478 -12 665 -12 q 151 300 151 -12 q 231 528 151 447 q 456 608 310 608 q 608 583 540 608 l 632 575 q 585 776 624 721 q 444 831 546 831 q 347 819 400 831 q 261 794 293 807 l 231 783 l 225 926 q 476 989 343 989 m 479 450 q 351 298 351 450 q 478 146 351 146 q 594 210 556 146 q 632 419 632 275 q 479 450 579 450 z "},"∆":{"ha":778,"x_min":114,"x_max":769,"o":"m 769 0 l 114 0 l 114 144 l 286 917 l 599 917 l 769 142 l 769 0 m 461 761 l 424 761 l 299 158 l 585 158 l 461 761 z "},"∏":{"ha":778,"x_min":174,"x_max":867,"o":"m 596 -250 l 596 889 l 439 889 l 439 -250 l 247 -250 l 247 889 l 174 889 l 174 1056 l 867 1056 l 867 889 l 788 889 l 788 -250 l 596 -250 z "},"∑":{"ha":778,"x_min":133,"x_max":828,"o":"m 133 1056 l 828 1056 l 828 889 l 336 889 l 336 868 l 635 478 l 635 349 l 336 -62 l 336 -83 l 828 -83 l 828 -250 l 133 -250 l 133 -57 l 464 414 l 133 861 l 133 1056 z "},"−":{"ha":778,"x_min":165,"x_max":771,"o":"m 165 265 l 165 432 l 771 432 l 771 265 l 165 265 z "},"√":{"ha":778,"x_min":140,"x_max":932,"o":"m 140 444 l 140 611 l 371 611 l 499 -22 l 517 -22 l 743 1099 l 932 1099 l 654 -181 l 357 -181 l 215 444 l 140 444 z "},"∞":{"ha":778,"x_min":131,"x_max":833,"o":"m 324 168 q 131 406 131 168 q 321 643 131 643 q 482 535 425 643 q 643 643 539 643 q 833 406 833 643 q 640 168 833 168 q 482 275 536 168 q 324 168 426 168 m 350 483 q 300 406 300 483 q 350 328 300 328 q 383 347 368 328 q 419 406 399 365 q 350 483 381 483 m 614 328 q 664 406 664 328 q 614 483 664 483 q 544 406 583 483 q 581 347 565 365 q 614 328 596 328 z "},"∫":{"ha":778,"x_min":236,"x_max":739,"o":"m 578 -22 q 371 -276 578 -276 q 258 -262 329 -276 l 236 -258 l 242 -106 q 316 -110 276 -110 q 371 -90 356 -110 q 386 -18 386 -69 l 386 824 q 432 1028 386 971 q 593 1085 478 1085 q 714 1069 639 1085 l 739 1065 l 733 913 q 647 918 689 918 q 592 897 606 918 q 578 822 578 875 l 578 -22 z "},"≈":{"ha":778,"x_min":158,"x_max":771,"o":"m 696 390 q 672 379 696 390 q 610 368 649 368 q 460 399 571 368 q 323 429 350 429 q 258 416 296 429 q 196 389 219 403 l 172 375 l 158 524 q 331 596 247 596 q 476 565 369 596 q 611 535 583 535 q 735 575 664 535 l 758 588 l 771 439 q 696 390 743 411 m 696 84 q 672 73 696 84 q 610 63 649 63 q 460 93 571 63 q 323 124 350 124 q 258 110 296 124 q 196 83 219 97 l 172 69 l 158 218 q 331 290 247 290 q 476 260 369 290 q 611 229 583 229 q 735 269 664 229 l 758 282 l 771 133 q 696 84 743 106 z "},"≠":{"ha":778,"x_min":161,"x_max":778,"o":"m 161 410 l 161 578 l 478 578 l 572 792 l 717 735 l 647 578 l 778 578 l 778 410 l 574 410 l 521 289 l 778 289 l 778 121 l 447 121 l 360 -78 l 215 -21 l 278 121 l 161 121 l 161 289 l 351 289 l 404 410 l 161 410 z "},"≤":{"ha":778,"x_min":164,"x_max":749,"o":"m 749 536 l 371 468 l 749 393 l 749 213 l 164 381 l 164 542 l 749 717 l 749 536 m 164 26 l 164 193 l 749 193 l 749 26 l 164 26 z "},"≥":{"ha":778,"x_min":181,"x_max":765,"o":"m 558 468 l 181 536 l 181 717 l 765 542 l 765 381 l 181 213 l 181 393 l 558 468 m 765 193 l 765 26 l 181 26 l 181 193 l 765 193 z "},"◊":{"ha":778,"x_min":165,"x_max":821,"o":"m 372 0 l 165 450 l 372 917 l 615 917 l 821 450 l 615 0 l 372 0 m 506 158 l 636 450 l 506 758 l 482 758 l 350 450 l 482 158 l 506 158 z "},"":{"ha":339,"x_min":-97,"x_max":422,"o":"m 76 0 l 236 694 l 422 694 l 263 0 q 242 -83 250 -56 q 218 -144 235 -111 q 186 -192 201 -176 q 136 -231 171 -208 q -39 -319 89 -264 l -97 -171 q 35 -90 10 -115 q 76 0 61 -64 z "},"":{"ha":224,"x_min":-107,"x_max":199,"o":"m -107 -429 l 28 -100 l 199 -100 l 50 -429 l -107 -429 z "}}}
